<?xml version="1.0" encoding="UTF-8" standalone="no"?>
<!-- Created with Inkscape (http://www.inkscape.org/) -->

<svg
   version="1.1"
   id="svg2"
   xml:space="preserve"
   width="164.52"
   height="164.45332"
   viewBox="0 0 164.52 164.45332"
   sodipodi:docname="DOMOTIQUE.eps"
   xmlns:inkscape="http://www.inkscape.org/namespaces/inkscape"
   xmlns:sodipodi="http://sodipodi.sourceforge.net/DTD/sodipodi-0.dtd"
   xmlns="http://www.w3.org/2000/svg"
   xmlns:svg="http://www.w3.org/2000/svg"><defs
     id="defs6" /><sodipodi:namedview
     id="namedview4"
     pagecolor="#ffffff"
     bordercolor="#666666"
     borderopacity="1.0"
     inkscape:pageshadow="2"
     inkscape:pageopacity="0.0"
     inkscape:pagecheckerboard="0" /><g
     id="g8"
     inkscape:groupmode="layer"
     inkscape:label="ink_ext_XXXXXX"
     transform="matrix(1.3333333,0,0,-1.3333333,0,164.45333)"><g
       id="g10"
       transform="scale(0.1)"><path
         d="M 332.297,5 C 244.953,5 162.828,39.0195 101.055,100.781 l -0.278,0.278 C 39.0156,162.832 5,244.953 5,332.301 c 0,87.347 34.0117,169.465 95.777,231.23 l 501.02,501.019 c 12.191,12.19 28.433,18.91 45.73,18.91 17.293,0 33.532,-6.72 45.719,-18.91 L 1064.55,693.262 c 12.19,-12.196 18.9,-28.438 18.9,-45.735 0,-17.297 -6.71,-33.539 -18.9,-45.73 L 831.457,368.707 c -2.301,-2.297 -5.359,-3.562 -8.609,-3.562 -3.254,0 -6.313,1.265 -8.61,3.562 -2.304,2.305 -3.574,5.359 -3.574,8.609 0,3.254 1.27,6.317 3.574,8.622 l 233.082,233.078 c 15.72,15.718 15.72,41.297 0,57.019 L 676.031,1047.32 c -7.613,7.61 -17.738,11.81 -28.504,11.81 -10.781,0 -20.906,-4.2 -28.511,-11.82 L 118.004,546.313 C 60.8398,489.148 29.3594,413.145 29.3594,332.301 c 0,-80.848 31.4804,-156.852 88.6446,-214.02 l 0.277,-0.269 c 57.164,-57.1722 133.168,-88.6526 214.016,-88.6526 80.848,0 156.851,31.4804 214.016,88.6526 l 129.109,129.109 c 2.305,2.305 5.363,3.57 8.613,3.57 3.254,0 6.309,-1.265 8.61,-3.57 4.75,-4.75 4.75,-12.48 0,-17.23 L 563.535,100.781 C 501.766,39.0195 419.641,5 332.297,5"
         style="fill:#040606;fill-opacity:1;fill-rule:nonzero;stroke:none"
         id="path12" /><path
         d="m 647.523,1078.45 c -15.957,0 -30.945,-6.19 -42.195,-17.44 L 104.313,559.996 C 43.4961,499.172 10,418.309 10,332.297 10,246.285 43.4961,165.422 104.313,104.59 165.414,43.5 246.285,10 332.297,10 418.305,10 499.172,43.5 560,104.309 l 129.105,129.117 c 1.36,1.355 2.102,3.16 2.102,5.078 0,1.922 -0.742,3.726 -2.102,5.082 -2.714,2.715 -7.429,2.715 -10.144,0 L 549.848,114.469 C 491.738,56.3594 414.477,24.3594 332.297,24.3594 c -82.184,0 -159.445,32 -217.551,90.1096 -58.3827,58.383 -90.3866,135.644 -90.3866,217.828 0,82.187 32.0039,159.449 90.1096,217.555 l 501.015,500.998 c 8.536,8.56 19.911,13.28 32.039,13.28 12.102,0 23.477,-4.71 32.043,-13.27 L 1050.85,679.566 c 8.55,-8.543 13.27,-19.925 13.27,-32.043 0,-12.117 -4.72,-23.5 -13.27,-32.043 L 817.77,382.398 c -1.348,-1.355 -2.102,-3.164 -2.102,-5.082 0,-1.918 0.742,-3.718 2.102,-5.074 2.714,-2.703 7.441,-2.711 10.156,0.008 l 233.084,233.086 c 11.25,11.242 17.44,26.223 17.44,42.191 0,15.965 -6.19,30.953 -17.44,42.196 L 689.711,1061.01 c -11.238,11.25 -26.231,17.44 -42.188,17.44 z M 332.297,0 C 243.613,0 160.234,34.5391 97.5195,97.25 34.5352,160.238 0,243.613 0,332.297 0,420.98 34.5352,504.355 97.2422,567.066 L 598.258,1068.08 c 13.144,13.14 30.633,20.37 49.265,20.37 18.633,0 36.125,-7.23 49.258,-20.37 L 1068.08,696.793 c 13.14,-13.129 20.37,-30.629 20.37,-49.266 0,-18.636 -7.23,-36.132 -20.37,-49.261 L 834.996,365.172 c -6.504,-6.492 -17.793,-6.488 -24.297,-0.004 -3.242,3.246 -5.031,7.559 -5.031,12.148 0,4.582 1.789,8.899 5.02,12.149 l 233.092,233.086 c 6.66,6.66 10.34,15.527 10.34,24.972 0,9.446 -3.68,18.313 -10.34,24.973 L 672.496,1043.79 c -13.351,13.35 -36.652,13.33 -49.933,-0.01 L 121.539,542.781 C 65.3242,486.566 34.3594,411.813 34.3594,332.297 c 0,-79.512 30.9648,-154.266 87.1796,-210.477 56.492,-56.4997 131.242,-87.4606 210.758,-87.4606 79.512,0 154.262,30.9609 210.48,87.1796 l 129.114,129.117 c 6.492,6.5 17.82,6.477 24.297,-0.004 3.23,-3.238 5.019,-7.554 5.019,-12.148 0,-4.59 -1.789,-8.902 -5.031,-12.152 L 567.07,97.2383 C 504.355,34.5391 420.977,0 332.297,0"
         style="fill:#171717;fill-opacity:1;fill-rule:nonzero;stroke:none"
         id="path14" /><path
         d="m 754.297,296.594 c -3.152,0 -6.371,1.336 -8.609,3.574 -2.239,2.238 -3.575,5.457 -3.575,8.609 0,3.153 1.336,6.371 3.575,8.61 2.238,2.234 5.457,3.57 8.609,3.57 3.152,0 6.371,-1.336 8.609,-3.57 2.235,-2.239 3.571,-5.457 3.571,-8.61 0,-3.152 -1.336,-6.371 -3.571,-8.609 -2.238,-2.238 -5.457,-3.574 -8.609,-3.574"
         style="fill:#040606;fill-opacity:1;fill-rule:nonzero;stroke:none"
         id="path16" /><path
         d="m 754.293,315.953 c -1.828,0 -3.77,-0.805 -5.07,-2.101 -1.297,-1.305 -2.11,-3.25 -2.11,-5.075 0,-1.828 0.813,-3.769 2.11,-5.074 2.597,-2.598 7.55,-2.598 10.148,0 1.297,1.305 2.109,3.246 2.109,5.074 0,1.825 -0.812,3.77 -2.109,5.075 -1.301,1.296 -3.242,2.101 -5.078,2.101 z m 0,-24.359 c -4.445,0 -8.984,1.886 -12.141,5.039 -3.152,3.156 -5.039,7.695 -5.039,12.144 0,4.45 1.887,8.989 5.039,12.145 6.309,6.308 17.981,6.308 24.289,0 3.153,-3.156 5.039,-7.695 5.039,-12.145 0,-4.449 -1.886,-8.988 -5.039,-12.144 -3.156,-3.153 -7.695,-5.039 -12.148,-5.039"
         style="fill:#171717;fill-opacity:1;fill-rule:nonzero;stroke:none"
         id="path18" /><path
         d="M 302.723,485.727 C 236.047,474.52 183.715,422.191 172.508,355.512 l -2.391,-14.211 h 102.481 l 2.972,7.887 c 5.825,15.457 18.024,27.652 33.465,33.46 l 7.899,2.973 v 102.492 z m 38.574,-100.106 7.894,-2.973 c 15.45,-5.812 27.645,-18.003 33.457,-33.453 l 2.973,-7.894 h 102.492 l -2.39,14.211 C 474.516,422.191 422.188,474.52 355.508,485.727 l -14.211,2.386 z m -12.184,-23.676 c -18.097,0 -32.828,-14.726 -32.828,-32.828 0,-18.101 14.731,-32.828 32.828,-32.828 18.102,0 32.828,14.727 32.828,32.828 0,18.102 -14.726,32.828 -32.828,32.828 z M 172.508,302.727 c 11.207,-66.692 63.539,-119.016 130.219,-130.215 l 14.207,-2.391 v 102.481 l -7.891,2.972 c -15.449,5.821 -27.648,18.024 -33.473,33.473 l -2.972,7.891 H 170.117 Z m 210.14,6.312 c -5.808,-15.445 -18.003,-27.641 -33.46,-33.465 l -7.891,-2.972 V 170.121 l 14.207,2.391 c 66.68,11.199 119.012,63.523 130.219,130.215 l 2.39,14.211 H 385.617 Z M 329.113,145.91 c -101.011,0 -183.195,82.192 -183.195,183.207 0,101.016 82.184,183.196 183.195,183.196 101.016,0 183.2,-82.18 183.2,-183.196 0,-101.015 -82.184,-183.207 -183.2,-183.207"
         style="fill:#040606;fill-opacity:1;fill-rule:nonzero;stroke:none"
         id="path20" /><path
         d="m 176.023,346.301 h 93.118 l 1.754,4.652 c 6.332,16.809 19.593,30.067 36.386,36.379 l 4.653,1.754 v 93.117 l -8.379,-1.41 C 238.977,469.941 188.297,419.262 177.438,354.68 Z m 100.032,-10 H 164.211 l 3.363,20.039 c 11.567,68.777 65.547,122.758 134.321,134.316 l 20.039,3.364 V 382.16 l -11.133,-4.187 C 296.703,372.668 285.566,361.539 280.25,347.43 Z m 113.027,10 h 93.121 l -1.41,8.379 C 469.938,419.262 419.258,469.938 354.68,480.793 l -8.387,1.41 v -93.117 l 4.664,-1.762 c 16.797,-6.316 30.055,-19.574 36.367,-36.371 z m 104.938,-10 H 382.156 l -4.187,11.133 c -5.301,14.101 -16.438,25.23 -30.535,30.539 l -11.141,4.187 v 111.86 l 20.047,-3.364 C 425.117,479.098 479.098,425.117 490.652,356.34 Z m -164.903,20.644 c -15.344,0 -27.828,-12.484 -27.828,-27.828 0,-15.34 12.484,-27.824 27.828,-27.824 15.34,0 27.824,12.484 27.824,27.824 0,15.344 -12.484,27.828 -27.824,27.828 z m 0,-65.652 c -20.859,0 -37.828,16.965 -37.828,37.824 0,20.86 16.969,37.828 37.828,37.828 20.86,0 37.824,-16.968 37.824,-37.828 0,-20.859 -16.964,-37.824 -37.824,-37.824 z m -151.679,12.266 c 10.859,-64.598 61.539,-115.278 126.113,-126.118 l 8.383,-1.41 v 93.114 l -4.653,1.75 c -16.797,6.328 -30.058,19.589 -36.386,36.386 l -1.754,4.657 h -93.118 z m 144.496,-139.34 -20.039,3.363 c -68.774,11.539 -122.754,65.52 -134.321,134.316 l -3.363,20.04 h 111.844 l 4.195,-11.129 c 5.316,-14.11 16.449,-25.243 30.555,-30.559 l 11.129,-4.191 z m 24.359,104.918 v -93.106 l 8.379,1.41 c 64.586,10.84 115.266,61.52 126.121,126.118 l 1.41,8.379 h -93.125 l -1.754,-4.661 c -6.312,-16.789 -19.57,-30.047 -36.371,-36.382 z m -10,-104.918 v 111.844 l 11.133,4.187 c 14.105,5.316 25.234,16.449 30.543,30.555 l 4.183,11.133 H 494.02 l -3.368,-20.04 C 479.098,233.102 425.113,179.121 356.328,167.582 Z m -7.176,343.094 c -98.258,0 -178.199,-79.938 -178.199,-178.196 0,-98.258 79.941,-178.195 178.199,-178.195 98.254,0 178.192,79.937 178.192,178.195 0,98.258 -79.938,178.196 -178.192,178.196 z m 0,-366.391 c -103.773,0 -188.199,84.418 -188.199,188.195 0,103.77 84.426,188.196 188.199,188.196 103.77,0 188.192,-84.426 188.192,-188.196 0,-103.777 -84.422,-188.195 -188.192,-188.195"
         style="fill:#171717;fill-opacity:1;fill-rule:nonzero;stroke:none"
         id="path22" /><path
         d="m 472.512,652.414 180.32,-180.32 144.02,144.027 -20.438,160.297 -159.555,20.336 z m 180.32,-209.719 c -3.262,0 -6.32,1.266 -8.617,3.563 L 446.676,643.797 c -4.746,4.75 -4.746,12.48 0,17.226 l 137.703,137.704 -21.402,4.961 c -6.102,1.414 -10.106,7.171 -9.309,13.394 0.777,6.074 5.957,10.652 12.051,10.652 0.519,0 1.047,-0.035 1.57,-0.101 l 221.559,-28.246 c 5.504,-0.703 9.836,-5.032 10.535,-10.532 l 28.246,-221.562 c 0.414,-3.227 -0.457,-6.418 -2.445,-8.988 -1.993,-2.575 -4.871,-4.219 -8.098,-4.633 -0.531,-0.067 -1.055,-0.102 -1.563,-0.102 -5.507,0 -10.332,3.739 -11.726,9.09 l -5.375,20.578 -136.981,-136.98 c -2.296,-2.297 -5.355,-3.563 -8.609,-3.563"
         style="fill:#040606;fill-opacity:1;fill-rule:nonzero;stroke:none"
         id="path24" /><path
         d="m 479.578,652.414 173.25,-173.25 138.75,138.758 -19.64,154.023 -153.282,19.539 z m 173.25,-187.391 -187.39,187.391 149.625,149.609 165.82,-21.132 21.242,-166.575 z M 566.52,822.672 c -4.45,0 -7.438,-2.68 -7.891,-6.227 -0.469,-3.664 1.883,-7.054 5.476,-7.882 l 30.176,-6.997 -144.07,-144.078 c -2.801,-2.797 -2.801,-7.355 0,-10.156 L 647.75,449.793 c 2.695,-2.707 7.461,-2.707 10.156,0 l 143.153,143.152 7.57,-29.023 c 0.828,-3.149 3.66,-5.352 6.894,-5.352 2.832,0.305 4.532,1.278 5.704,2.793 1.171,1.516 1.687,3.399 1.445,5.301 l -28.254,221.555 c -0.41,3.242 -2.957,5.793 -6.199,6.207 L 566.66,822.672 c -0.051,0 -0.097,0 -0.14,0 z m 86.308,-384.977 c -4.59,0 -8.906,1.785 -12.148,5.028 L 443.141,640.262 c -6.696,6.703 -6.696,17.601 0,24.297 l 131.332,131.332 -12.621,2.925 c -8.622,1.993 -14.27,10.118 -13.145,18.903 1.188,9.273 9.891,15.98 19.184,14.883 l 221.597,-28.254 c 7.762,-0.996 13.875,-7.11 14.852,-14.868 l 28.254,-221.554 c 0.574,-4.555 -0.656,-9.059 -3.457,-12.684 -2.813,-3.633 -6.867,-5.953 -11.426,-6.527 -8.625,-1.086 -16.613,4.437 -18.75,12.68 l -3.176,12.136 -130.808,-130.808 c -3.243,-3.243 -7.559,-5.028 -12.149,-5.028"
         style="fill:#171717;fill-opacity:1;fill-rule:nonzero;stroke:none"
         id="path26" /><path
         d="m 1216.71,930.121 c -6.71,0 -12.17,5.461 -12.17,12.172 0,144.337 -117.43,261.767 -261.763,261.767 -6.714,0 -12.179,5.46 -12.179,12.18 0,6.72 5.465,12.18 12.179,12.18 157.763,0 286.113,-128.35 286.113,-286.127 0,-6.711 -5.46,-12.172 -12.18,-12.172"
         style="fill:#040606;fill-opacity:1;fill-rule:nonzero;stroke:none"
         id="path28" /><path
         d="m 942.777,1223.42 c -3.953,0 -7.175,-3.22 -7.175,-7.18 0,-3.96 3.222,-7.18 7.175,-7.18 147.103,0 266.773,-119.67 266.773,-266.767 0,-3.949 3.21,-7.168 7.16,-7.168 3.96,0 7.18,3.219 7.18,7.168 0,155.017 -126.1,281.127 -281.113,281.127 z M 1216.71,925.125 c -9.46,0 -17.16,7.699 -17.16,17.168 0,141.587 -115.19,256.767 -256.773,256.767 -9.472,0 -17.175,7.71 -17.175,17.18 0,9.47 7.703,17.18 17.175,17.18 160.523,0 291.113,-130.6 291.113,-291.127 0,-9.469 -7.7,-17.168 -17.18,-17.168"
         style="fill:#171717;fill-opacity:1;fill-rule:nonzero;stroke:none"
         id="path30" /><path
         d="m 1073.8,930.113 c -6.71,0 -12.18,5.465 -12.18,12.18 0,65.537 -53.31,118.857 -118.843,118.857 -6.714,0 -12.179,5.46 -12.179,12.18 0,6.71 5.465,12.17 12.179,12.17 78.963,0 143.203,-64.24 143.203,-143.207 0,-6.715 -5.46,-12.18 -12.18,-12.18"
         style="fill:#040606;fill-opacity:1;fill-rule:nonzero;stroke:none"
         id="path32" /><path
         d="m 942.777,1080.5 c -3.953,0 -7.175,-3.22 -7.175,-7.17 0,-3.96 3.222,-7.18 7.175,-7.18 68.293,0 123.853,-55.56 123.853,-123.857 0,-3.961 3.22,-7.18 7.17,-7.18 3.96,0 7.18,3.219 7.18,7.18 0,76.207 -62,138.207 -138.203,138.207 z M 1073.8,925.113 c -9.47,0 -17.17,7.707 -17.17,17.18 0,62.777 -51.08,113.857 -113.853,113.857 -9.472,0 -17.175,7.71 -17.175,17.18 0,9.47 7.703,17.17 17.175,17.17 81.723,0 148.203,-66.48 148.203,-148.207 0,-9.473 -7.7,-17.18 -17.18,-17.18"
         style="fill:#171717;fill-opacity:1;fill-rule:nonzero;stroke:none"
         id="path34" /><path
         d="m 940.531,927.883 c -3.203,0 -6.34,1.305 -8.609,3.574 -2.258,2.258 -3.555,5.395 -3.555,8.609 0,3.164 1.328,6.383 3.555,8.606 2.273,2.266 5.418,3.574 8.609,3.574 3.199,0 6.352,-1.308 8.645,-3.59 2.203,-2.203 3.523,-5.422 3.523,-8.59 0,-3.218 -1.289,-6.355 -3.543,-8.609 -2.269,-2.269 -5.414,-3.574 -8.625,-3.574"
         style="fill:#040606;fill-opacity:1;fill-rule:nonzero;stroke:none"
         id="path36" /><path
         d="m 940.531,947.25 c -1.855,0 -3.75,-0.793 -5.086,-2.121 -1.281,-1.277 -2.082,-3.223 -2.082,-5.063 0,-1.894 0.762,-3.746 2.09,-5.074 2.676,-2.679 7.492,-2.676 10.168,-0.004 1.317,1.328 2.078,3.172 2.078,5.078 0,1.852 -0.789,3.786 -2.058,5.047 -1.36,1.356 -3.223,2.137 -5.11,2.137 z m 0,-24.367 c -4.511,0 -8.933,1.836 -12.148,5.035 -3.192,3.191 -5.02,7.621 -5.02,12.148 0,4.461 1.875,9 5.02,12.145 6.465,6.41 17.89,6.391 24.316,-0.012 3.137,-3.125 5,-7.66 5,-12.133 0,-4.543 -1.824,-8.968 -5.008,-12.148 -3.195,-3.199 -7.628,-5.035 -12.16,-5.035"
         style="fill:#171717;fill-opacity:1;fill-rule:nonzero;stroke:none"
         id="path38" /></g></g></svg>
