<?xml version="1.0" encoding="iso-8859-1"?>
<!-- Generator: Adobe Illustrator 19.0.0, SVG Export Plug-In . SVG Version: 6.00 Build 0)  -->
<svg version="1.1" id="Layer_1" xmlns="http://www.w3.org/2000/svg" xmlns:xlink="http://www.w3.org/1999/xlink" x="0px" y="0px"
	 viewBox="0 0 512.001 512.001" style="enable-background:new 0 0 512.001 512.001;" xml:space="preserve">
<g>
	<g>
		<path d="M342.597,105.899c-0.979-4.845-5.693-7.979-10.544-7.001l-223.223,45.08c-4.845,0.979-7.98,5.699-7.001,10.544
			c0.858,4.248,4.591,7.18,8.764,7.18c0.587,0,1.184-0.058,1.782-0.179l223.222-45.08
			C340.44,115.465,343.575,110.744,342.597,105.899z"/>
	</g>
</g>
<g>
	<g>
		<path d="M494.023,196.011c-9.47-9.47-21.489-15.467-34.51-17.356l-0.024-109.415c0-4.407-3.21-8.159-7.566-8.84l-79.135-12.39
			c-2.585-0.406-5.217,0.341-7.204,2.042c-1.988,1.701-3.131,4.186-3.131,6.802l0.026,101.172c0.001,4.943,4.007,8.947,8.95,8.947
			h0.001c4.944-0.001,8.95-4.01,8.949-8.952l-0.024-90.709L441.59,76.9l0.085,325.098l-61.229,9.556l-0.056-217.735
			c-0.001-4.943-4.007-8.948-8.95-8.948h-0.001c-4.944,0.001-8.95,4.01-8.949,8.952l0.045,174.013L48.646,304.275l0.563-129.995
			l31.514-6.364c4.845-0.979,7.98-5.699,7.001-10.544c-0.977-4.845-5.696-7.979-10.544-7.001l-38.66,7.808
			c-4.161,0.84-7.16,4.489-7.178,8.734l-0.044,10.28H8.95c-4.943,0-8.95,4.007-8.95,8.95v106.574c0,4.943,4.007,8.95,8.95,8.95
			h21.807l-0.043,9.883c-0.019,4.273,2.986,7.963,7.174,8.81l27.552,5.579L54.975,454.422c-0.203,2.492,0.646,4.955,2.34,6.792
			c1.694,1.839,4.08,2.884,6.58,2.884h74.69c3.97,0,7.465-2.616,8.586-6.425l26.699-90.784c1.394-4.742-1.319-9.717-6.061-11.112
			c-4.742-1.391-9.717,1.319-11.112,6.061l-24.81,84.359H73.604l9.504-116.683l279.433,56.582l0.01,35.91
			c0,2.615,1.144,5.097,3.131,6.797c1.633,1.397,3.701,2.15,5.819,2.15c0.458,0,0.92-0.036,1.379-0.107l79.13-12.35
			c4.358-0.68,7.572-4.434,7.569-8.846l-0.038-109.408c13.02-1.884,25.037-7.874,34.502-17.339
			C517.994,258.955,517.986,219.973,494.023,196.011z M30.834,283.766H17.9v-88.674h13.319L30.834,283.766z M459.535,282.075
			l-0.018-85.242c8.221,1.709,15.776,5.761,21.85,11.835c16.983,16.983,16.993,44.61,0.02,61.584
			C475.313,276.324,467.758,280.372,459.535,282.075z"/>
	</g>
</g>
<g>
</g>
<g>
</g>
<g>
</g>
<g>
</g>
<g>
</g>
<g>
</g>
<g>
</g>
<g>
</g>
<g>
</g>
<g>
</g>
<g>
</g>
<g>
</g>
<g>
</g>
<g>
</g>
<g>
</g>
</svg>
