<?xml version="1.0" encoding="iso-8859-1"?>
<!-- Uploaded to: SVG Repo, www.svgrepo.com, Generator: SVG Repo Mixer Tools -->
<!DOCTYPE svg PUBLIC "-//W3C//DTD SVG 1.1//EN" "http://www.w3.org/Graphics/SVG/1.1/DTD/svg11.dtd">
<svg fill="#000000" height="800px" width="800px" version="1.1" id="Capa_1" xmlns="http://www.w3.org/2000/svg" xmlns:xlink="http://www.w3.org/1999/xlink" 
	 viewBox="0 0 481.921 481.921" xml:space="preserve">
<g>
	<path d="M478.713,246.647L243.752,123.12c-1.748-0.919-3.836-0.919-5.584,0l-100.168,52.662v-30.351c0-3.313-2.687-6-6-6h-30
		c-3.313,0-6,2.687-6,6v52.431L3.209,246.647c-2.443,1.284-3.694,4.069-3.033,6.749c0.662,2.679,3.065,4.562,5.825,4.562h50.1
		v95.533c0,3.313,2.687,6,6,6h357.72c3.314,0,6-2.687,6-6v-95.533h50.1c2.76,0,5.164-1.883,5.825-4.562
		C482.407,250.715,481.156,247.931,478.713,246.647z M108.001,151.431h18v30.659l-18,9.463V151.431z M413.821,347.49H68.101v-89.533
		h345.72V347.49z M30.307,245.957L240.96,135.21l210.654,110.747H30.307z"/>
	<path d="M95.96,333.431h28c3.313,0,6-2.687,6-6v-54c0-3.313-2.687-6-6-6h-28c-3.313,0-6,2.687-6,6v54
		C89.96,330.745,92.647,333.431,95.96,333.431z M101.96,279.431h16v42h-16V279.431z"/>
	<path d="M161.46,333.431h28c3.313,0,6-2.687,6-6v-54c0-3.313-2.687-6-6-6h-28c-3.313,0-6,2.687-6,6v54
		C155.46,330.745,158.147,333.431,161.46,333.431z M167.46,279.431h16v42h-16V279.431z"/>
	<path d="M226.96,333.431h28c3.313,0,6-2.687,6-6v-54c0-3.313-2.687-6-6-6h-28c-3.313,0-6,2.687-6,6v54
		C220.96,330.745,223.647,333.431,226.96,333.431z M232.96,279.431h16v42h-16V279.431z"/>
	<path d="M292.46,333.431h28c3.313,0,6-2.687,6-6v-54c0-3.313-2.687-6-6-6h-28c-3.313,0-6,2.687-6,6v54
		C286.46,330.745,289.147,333.431,292.46,333.431z M298.46,279.431h16v42h-16V279.431z"/>
	<path d="M357.96,333.431h28c3.313,0,6-2.687,6-6v-54c0-3.313-2.687-6-6-6h-28c-3.313,0-6,2.687-6,6v54
		C351.96,330.745,354.647,333.431,357.96,333.431z M363.96,279.431h16v42h-16V279.431z"/>
</g>
</svg>