<?xml version="1.0" encoding="iso-8859-1"?>
<!-- Uploaded to: SVG Repo, www.svgrepo.com, Generator: SVG Repo Mixer Tools -->
<!DOCTYPE svg PUBLIC "-//W3C//DTD SVG 1.1//EN" "http://www.w3.org/Graphics/SVG/1.1/DTD/svg11.dtd">
<svg fill="#000000" height="800px" width="800px" version="1.1" id="Capa_1" xmlns="http://www.w3.org/2000/svg" xmlns:xlink="http://www.w3.org/1999/xlink" 
	 viewBox="0 0 452 452" xml:space="preserve">
<g>
	<path d="M418.09,101.5H123.75c-29.467,0-54.269,21.113-58.973,50.203l-15.021,92.92c-1.524,9.43-0.663,19.184,2.488,28.204
		c2.418,6.928,6.073,13.228,10.775,18.673H24v-6c0-3.313-2.687-6-6-6s-6,2.687-6,6v6H6c-3.313,0-6,2.687-6,6s2.687,6,6,6h6v41
		c0,3.313,2.687,6,6,6s6-2.687,6-6v-41h53.397c8.871,5.244,18.905,8,29.303,8h97.592c2.491,21.915,21.137,39,43.708,39
		s41.216-17.085,43.708-39H418.09c18.698,0,33.91-15.212,33.91-33.91V135.41C452,116.712,436.788,101.5,418.09,101.5z M402,293.64
		v5.86h-9v-60h47v25h-8.86C415.072,264.5,402,277.572,402,293.64z M381,299.5h-60.869V179.921c0-9.606,7.815-17.421,17.422-17.421
		h26.025c9.606,0,17.422,7.815,17.422,17.421V299.5z M76.623,153.618c3.76-23.246,23.579-40.118,47.127-40.118h294.34
		c12.081,0,21.91,9.829,21.91,21.91v92.09h-47v-47.579c0-16.223-13.198-29.421-29.422-29.421h-26.025
		c-16.224,0-29.422,13.198-29.422,29.421V227.5H64.68L76.623,153.618z M80.253,291.067c-7.768-5.514-13.535-13.189-16.679-22.196
		c-2.496-7.145-3.178-14.867-1.972-22.333l1.138-7.038h245.391v60h-18.352l-7.558-20.111c-0.879-2.34-3.117-3.889-5.616-3.889
		h-57.21c-2.5,0-4.737,1.55-5.616,3.89l-7.557,20.11H106.7C97.172,299.5,88.026,296.584,80.253,291.067z M248,338.5
		c-17.295,0-31.43-13.792-31.983-30.955l7.533-20.045h48.899l7.534,20.045C279.43,324.708,265.295,338.5,248,338.5z M418.09,299.5
		H414v-5.86c0-9.451,7.688-17.14,17.14-17.14H440v1.09C440,289.671,430.171,299.5,418.09,299.5z"/>
	<path d="M91,216.5h146.783c8.391,0,15.217-6.826,15.217-15.217v-35.566c0-8.391-6.826-15.217-15.217-15.217H113.496
		c-11.84,0-21.916,8.854-23.438,20.596l-5.008,38.633c-0.222,1.711,0.304,3.436,1.443,4.732C87.632,215.757,89.274,216.5,91,216.5z
		 M241,165.717v35.566c0,1.774-1.443,3.217-3.217,3.217H184v-42h53.783C239.557,162.5,241,163.943,241,165.717z M101.958,172.639
		c0.749-5.78,5.71-10.139,11.538-10.139H172v42H97.828L101.958,172.639z"/>
	<path d="M248,288.313c-10.028,0-18.188,8.159-18.188,18.188s8.159,18.188,18.188,18.188s18.188-8.159,18.188-18.188
		S258.028,288.313,248,288.313z M248,312.688c-3.412,0-6.188-2.776-6.188-6.188s2.775-6.188,6.188-6.188s6.188,2.776,6.188,6.188
		S251.412,312.688,248,312.688z"/>
	<path d="M337.781,215.5h-6.563c-3.313,0-6,2.687-6,6s2.687,6,6,6h6.563c3.313,0,6-2.687,6-6S341.095,215.5,337.781,215.5z"/>
</g>
</svg>