<?xml version="1.0" encoding="UTF-8" standalone="no"?>
<!-- Created with Inkscape (http://www.inkscape.org/) -->

<svg
   version="1.1"
   id="svg2"
   xml:space="preserve"
   width="120.02667"
   height="100.01333"
   viewBox="0 0 120.02667 100.01333"
   sodipodi:docname="cateÌgorie.eps"
   xmlns:inkscape="http://www.inkscape.org/namespaces/inkscape"
   xmlns:sodipodi="http://sodipodi.sourceforge.net/DTD/sodipodi-0.dtd"
   xmlns="http://www.w3.org/2000/svg"
   xmlns:svg="http://www.w3.org/2000/svg"><defs
     id="defs6" /><sodipodi:namedview
     id="namedview4"
     pagecolor="#ffffff"
     bordercolor="#666666"
     borderopacity="1.0"
     inkscape:pageshadow="2"
     inkscape:pageopacity="0.0"
     inkscape:pagecheckerboard="0" /><g
     id="g8"
     inkscape:groupmode="layer"
     inkscape:label="ink_ext_XXXXXX"
     transform="matrix(1.3333333,0,0,-1.3333333,0,100.01333)"><g
       id="g10"
       transform="scale(0.1)"><path
         d="m 709.762,320.438 c -0.012,-0.004 -0.024,-0.012 -0.035,-0.016 L 450.09,197.438 75.0742,375.074 180.867,425.188 440.457,302.227 c 3.047,-1.446 6.34,-2.168 9.633,-2.168 3.293,0 6.586,0.722 9.633,2.168 L 719.309,425.188 825.105,375.074 Z M 825.105,225.047 450.09,47.4063 75.0742,225.047 180.867,275.16 440.457,152.195 c 3.047,-1.441 6.34,-2.164 9.633,-2.164 3.293,0 6.586,0.723 9.633,2.164 L 719.309,275.16 Z M 450.09,702.742 825.105,525.105 709.762,470.469 c -0.012,-0.004 -0.024,-0.012 -0.035,-0.016 L 450.09,347.465 190.449,470.453 c -0.008,0.004 -0.015,0.008 -0.027,0.012 L 75.0742,525.105 Z M 900.18,375.074 c 0,8.699 -5.012,16.614 -12.871,20.336 l -115.43,54.68 115.43,54.676 c 7.859,3.722 12.871,11.64 12.871,20.339 0,8.696 -5.012,16.614 -12.871,20.336 L 459.723,747.984 c -6.098,2.887 -13.168,2.887 -19.266,0 L 12.8711,545.441 C 5.01172,541.719 0,533.801 0,525.105 0,516.406 5.01172,508.488 12.8711,504.766 L 128.301,450.09 12.8711,395.41 C 5.01172,391.688 0,383.773 0,375.074 0,366.379 5.01172,358.461 12.8711,354.738 L 128.301,300.059 12.8711,245.383 C 5.01172,241.66 0,233.742 0,225.047 0,216.348 5.01172,208.43 12.8711,204.707 L 440.457,2.16797 C 443.504,0.722656 446.797,0 450.09,0 c 3.293,0 6.586,0.722656 9.633,2.16797 L 887.309,204.707 c 7.859,3.723 12.871,11.641 12.871,20.34 0,8.695 -5.012,16.613 -12.871,20.336 l -115.43,54.676 115.43,54.679 c 7.859,3.723 12.871,11.641 12.871,20.336"
         style="fill:#040606;fill-opacity:1;fill-rule:nonzero;stroke:none"
         id="path12" /></g></g></svg>
