<?xml version="1.0" encoding="iso-8859-1"?>
<!-- Uploaded to: SVG Repo, www.svgrepo.com, Generator: SVG Repo Mixer Tools -->
<!DOCTYPE svg PUBLIC "-//W3C//DTD SVG 1.1//EN" "http://www.w3.org/Graphics/SVG/1.1/DTD/svg11.dtd">
<svg fill="#000000" height="800px" width="800px" version="1.1" id="Capa_1" xmlns="http://www.w3.org/2000/svg" xmlns:xlink="http://www.w3.org/1999/xlink" 
	 viewBox="0 0 476.041 476.041" xml:space="preserve">
<g>
	<path d="M473.715,215.027l-232.02-179.75c-2.164-1.676-5.186-1.676-7.35,0L105.02,135.468V121.02h0.5c3.313,0,6-2.687,6-6v-24
		c0-3.313-2.687-6-6-6h-57c-3.313,0-6,2.687-6,6v24c0,3.313,2.687,6,6,6h0.5v57.832L2.326,215.027
		c-2.028,1.571-2.833,4.258-2.002,6.685C1.154,224.14,3.435,225.77,6,225.77h18.52v18.25h-7.5c-3.313,0-6,2.687-6,6v38
		c0,3.313,2.687,6,6,6h7.5v142c0,3.313,2.686,6,6,6h415c3.314,0,6-2.687,6-6v-142h7.5c3.313,0,6-2.687,6-6v-38c0-3.313-2.687-6-6-6
		h-7.5v-18.25h18.52c2.565,0,4.847-1.631,5.677-4.059C476.548,219.285,475.743,216.599,473.715,215.027z M54.52,97.02h45v12h-45
		V97.02z M61.02,121.02h32v23.744l-32,24.791V121.02z M89.52,256.02v7h-66.5v-7H89.52z M258.02,244.02h-40v-66h40V244.02z
		 M279.52,256.02v7h-83v-7H279.52z M291.52,282.02v-7h83v7H291.52z M101.52,282.02v-7h83v7H101.52z M196.52,275.02h83v7h-83V275.02z
		 M291.52,263.02v-7h83v7H291.52z M184.52,263.02h-83v-7h83V263.02z M23.02,275.02h66.5v7h-66.5V275.02z M133.27,430.02h-40v-98h40
		V430.02z M439.52,430.02H145.27v-104c0-3.313-2.687-6-6-6h-52c-3.313,0-6,2.687-6,6v104H36.52v-136h403V430.02z M386.52,282.02v-7
		h66.5v7H386.52z M453.02,263.02h-66.5v-7h66.5V263.02z M386.52,244.02v-4c0-3.313-2.687-6-6-6s-6,2.687-6,6v4h-83v-4
		c0-3.313-2.687-6-6-6s-6,2.687-6,6v4h-9.5v-72c0-3.313-2.687-6-6-6h-52c-3.313,0-6,2.687-6,6v72h-9.5v-4c0-3.313-2.687-6-6-6
		s-6,2.687-6,6v4h-83v-4c0-3.313-2.687-6-6-6s-6,2.687-6,6v4h-53v-17.059L238.02,70.86l201.5,156.102v17.059H386.52z
		 M442.883,214.388L241.695,58.527c-2.163-1.676-5.186-1.676-7.349,0L33.158,214.388c-6.384-0.363-9.615-0.617-9.615-0.617
		L238.02,47.61l214.478,166.16C452.498,213.77,449.024,214.024,442.883,214.388z"/>
	<path d="M264.02,121.02h-52c-3.313,0-6,2.687-6,6v23c0,3.313,2.687,6,6,6h52c3.313,0,6-2.687,6-6v-23
		C270.02,123.707,267.334,121.02,264.02,121.02z M258.02,144.02h-40v-11h40V144.02z"/>
	<path d="M180.993,166.02h-58.348c-3.313,0-6,2.687-6,6v58c0,3.313,2.687,6,6,6h58.348c3.313,0,6-2.687,6-6v-58
		C186.993,168.707,184.307,166.02,180.993,166.02z M128.645,178.02h17.174v46h-17.174V178.02z M174.993,224.02h-17.174v-46h17.174
		V224.02z"/>
	<path d="M353.395,166.02h-58.347c-3.313,0-6,2.687-6,6v58c0,3.313,2.687,6,6,6h58.347c3.313,0,6-2.687,6-6v-58
		C359.395,168.707,356.709,166.02,353.395,166.02z M301.048,178.02h17.174v46h-17.174V178.02z M347.395,224.02h-17.173v-46h17.173
		V224.02z"/>
	<path d="M175.27,390.02h58.348c3.313,0,6-2.687,6-6v-58c0-3.313-2.687-6-6-6H175.27c-3.313,0-6,2.687-6,6v58
		C169.27,387.334,171.957,390.02,175.27,390.02z M227.618,378.02h-17.174v-46h17.174V378.02z M181.27,332.02h17.174v46H181.27
		V332.02z"/>
	<path d="M267.27,390.02h58.348c3.313,0,6-2.687,6-6v-58c0-3.313-2.687-6-6-6H267.27c-3.313,0-6,2.687-6,6v58
		C261.27,387.334,263.957,390.02,267.27,390.02z M319.618,378.02h-17.174v-46h17.174V378.02z M273.27,332.02h17.174v46H273.27
		V332.02z"/>
	<path d="M359.27,390.02h58.348c3.313,0,6-2.687,6-6v-58c0-3.313-2.687-6-6-6H359.27c-3.313,0-6,2.687-6,6v58
		C353.27,387.334,355.957,390.02,359.27,390.02z M411.618,378.02h-17.174v-46h17.174V378.02z M365.27,332.02h17.174v46H365.27
		V332.02z"/>
</g>
</svg>