<?xml version="1.0" encoding="UTF-8" standalone="no"?>
<!-- Created with Inkscape (http://www.inkscape.org/) -->

<svg
   version="1.1"
   id="svg2"
   xml:space="preserve"
   width="146.13333"
   height="126.09333"
   viewBox="0 0 146.13333 126.09333"
   sodipodi:docname="chemineÌe.eps"
   xmlns:inkscape="http://www.inkscape.org/namespaces/inkscape"
   xmlns:sodipodi="http://sodipodi.sourceforge.net/DTD/sodipodi-0.dtd"
   xmlns="http://www.w3.org/2000/svg"
   xmlns:svg="http://www.w3.org/2000/svg"><defs
     id="defs6" /><sodipodi:namedview
     id="namedview4"
     pagecolor="#ffffff"
     bordercolor="#666666"
     borderopacity="1.0"
     inkscape:pageshadow="2"
     inkscape:pageopacity="0.0"
     inkscape:pagecheckerboard="0" /><g
     id="g8"
     inkscape:groupmode="layer"
     inkscape:label="ink_ext_XXXXXX"
     transform="matrix(1.3333333,0,0,-1.3333333,0,126.09333)"><g
       id="g10"
       transform="scale(0.1)"><path
         d="M 1019.16,32.9922 H 76.8008 V 76.2344 H 1019.16 Z m -787.687,151.9958 36.328,1.328 v -78.031 h -36.328 z m 0,136.317 h 36.328 v -102.91 l -36.328,-1.329 z m 0,60.742 c 0,22.937 2.457,45.308 7.105,66.871 l 34.172,-14.242 c -3.246,-17.051 -4.949,-34.641 -4.949,-52.621 v -28.696 h -36.328 z m 61.644,187.484 26.012,-26.008 c -16.578,-23.421 -29.652,-49.48 -38.457,-77.429 l -33.649,14.035 c 10.586,32.402 26.262,62.519 46.094,89.402 z m 116.676,97.239 13.957,-33.614 c -32.145,-15.968 -60.809,-37.929 -84.516,-64.418 l -25.714,25.711 c 27.05,29.832 59.707,54.5 96.273,72.321 z m 138.187,31.793 c 38.508,0 75.434,-6.918 109.598,-19.563 l -13.73,-33.656 c -29.922,10.926 -62.211,16.894 -95.868,16.894 -33.238,0 -65.14,-5.82 -94.746,-16.496 l -13.949,33.59 c 33.914,12.438 70.524,19.231 108.695,19.231 z m 139.055,-32.211 c 36.219,-17.789 68.567,-42.301 95.403,-71.895 L 756.727,568.75 c -23.446,26.184 -51.735,47.953 -83.446,63.879 z M 615.918,143.91 691.93,127.934 c 8.218,-1.719 14.179,-8.219 14.179,-19.641 h -93.531 l -11.691,30.809 c 5.148,1.386 10.156,2.992 15.031,4.808 z m -139.539,-0.765 c 6.043,-2.196 12.094,-3.907 18.238,-5.258 l -11.234,-29.602 h -93.531 c 0,10.895 5.961,17.93 14.183,19.649 z m 101.918,-34.86 h -60.633 l 9.582,25.25 c 0.375,0.953 41.856,-1 41.504,-0.09 z m -30.031,56.293 c -21.446,0.785 -38.555,1.887 -54.649,6.637 l 0.039,0.023 c -13.07,16.539 -16.449,35.805 -10.324,58.742 1.594,5.985 3.715,11.684 6.063,16.954 1.285,-3.965 2.746,-7.989 4.421,-11.961 13.747,-32.457 33.606,-41.305 47.836,-43.016 25.352,-3.047 46.504,3.246 61.989,10.727 -2.578,-10.383 -7.246,-22.336 -15.578,-33.7 -12.293,-2.91 -25.575,-4.386 -39.797,-4.406 z m 150.257,-5.273 -40.418,8.496 c 5.368,4.308 10.477,9.015 15.309,14.117 40.391,42.527 48.758,98.352 47.535,121.934 -2.91,56.277 -31.668,96.109 -48.554,114.839 -5.868,6.52 -14.973,8.684 -23.172,5.5 -8.18,-3.171 -13.43,-10.89 -13.371,-19.648 0.191,-27.863 -8.223,-38.922 -13.914,-39.566 -3.297,-0.348 -7.387,2.574 -8.614,8.113 -2.347,10.66 1.309,20.242 5.926,32.355 8.57,22.481 20.309,53.262 -6.719,101.844 -17.949,32.254 -49.918,50.602 -67.379,58.672 -7.504,3.465 -16.058,2.305 -22.363,-3.016 -6.285,-5.316 -8.855,-13.554 -6.703,-21.507 2.715,-9.977 7.82,-35.243 -3.145,-54.434 -8.156,-14.266 -23.007,-27.563 -38.789,-41.059 -6.73,-5.757 -7.523,-15.875 -1.761,-22.597 5.75,-6.727 15.867,-7.52 22.593,-1.77 18.012,15.41 35.067,30.785 45.778,49.516 10.41,18.207 11.976,38.25 10.543,54.844 11.925,-7.922 24.84,-19.184 33.211,-34.235 19.777,-35.531 12.832,-53.746 4.785,-74.84 -5.477,-14.355 -11.688,-30.64 -7.274,-50.66 4.645,-21.117 23.368,-35.34 43.485,-33.078 16.023,1.805 32.828,14.199 39.457,42.52 11.351,-17.821 22.386,-42.711 23.972,-73.454 1.09,-21.035 -8.464,-66.3 -38.765,-98.214 -5.227,-5.5 -10.867,-10.426 -16.93,-14.782 5.219,17.653 5.734,32.887 5.512,41.028 -0.192,6.808 -4.133,12.879 -10.285,15.824 -6.145,2.957 -13.328,2.23 -18.754,-1.871 l -0.262,-0.199 c -8.715,-6.579 -31.809,-24.055 -63.988,-20.2 -12.239,1.469 -26.903,21.446 -32.035,62.754 -0.911,7.356 -6.129,13.348 -13.282,15.274 -7.156,1.922 -14.668,-0.649 -19.14,-6.543 -21.051,-27.731 -36.403,-64.254 -31.602,-99.399 -30.617,25.2 -44.781,55.793 -42.152,91.11 0.015,0.226 0.023,0.453 0.031,0.668 0.035,0.199 0.051,0.41 0.066,0.601 l 0.118,1.535 c 3.121,31.543 14.492,57.973 35.777,83.18 5.711,6.762 4.855,16.871 -1.902,22.59 -6.77,5.699 -16.879,4.848 -22.59,-1.914 -25.317,-29.973 -39.442,-62.91 -43.188,-100.727 -0.043,-0.449 -0.074,-0.898 -0.109,-1.343 -0.148,-1.067 -0.234,-2.086 -0.234,-3.055 -3.254,-47.438 17.082,-89.223 58.957,-121.492 l -36.743,-7.719 c -22.972,-4.817 -39.64,-23.289 -39.64,-51.012 h -57.949 v 273.762 c 0,19.891 2.355,39.242 6.789,57.781 0.148,0.5 0.265,0.992 0.367,1.492 8.504,34.575 24.273,66.321 45.582,93.516 0.183,0.223 0.367,0.449 0.535,0.676 25.508,32.316 58.871,58.172 97.18,74.636 0.105,0.043 0.207,0.079 0.308,0.129 0.2,0.082 0.391,0.164 0.59,0.258 29.75,12.645 62.465,19.649 96.777,19.649 34.661,0 67.688,-7.145 97.68,-20.043 0.317,-0.149 0.633,-0.289 0.961,-0.426 0.117,-0.047 0.231,-0.09 0.348,-0.133 37.758,-16.492 70.652,-42.117 95.859,-74.062 0.176,-0.235 0.352,-0.461 0.535,-0.676 21.571,-27.531 37.461,-59.707 45.895,-94.766 0.082,-0.418 0.183,-0.828 0.301,-1.246 4.281,-18.238 6.55,-37.242 6.55,-56.777 V 108.293 h -57.945 c 0,30.387 -16.672,46.187 -39.641,51.012 z m 104.321,410.226 c 20.109,-27.269 35.961,-57.859 46.547,-90.789 l -33.715,-13.883 c -8.809,28.407 -22.02,54.899 -38.84,78.664 z M 864.488,183.367 V 108.293 H 828.16 v 76.594 z m -36.328,33.598 v 104.34 h 36.328 v -105.86 z m 36.328,165.082 V 353.359 H 828.16 v 28.688 c 0,17.539 -1.617,34.699 -4.715,51.351 l 34.243,14.09 c 4.457,-21.117 6.8,-43.011 6.8,-65.441 z M 1027.13,108.285 h -30.763 v 588.074 c 0,8.856 -7.172,16.028 -16.027,16.028 -8.848,0 -16.027,-7.172 -16.027,-16.028 V 108.285 h -67.77 v 273.762 c 0,84.008 -29.867,161.16 -79.539,221.41 -0.211,0.266 -0.43,0.531 -0.66,0.793 -63.981,77.145 -160.535,126.367 -268.364,126.367 -107.828,0 -204.378,-49.222 -268.359,-126.367 -0.234,-0.262 -0.453,-0.527 -0.66,-0.793 -49.676,-60.25 -79.539,-137.402 -79.539,-221.41 V 108.293 h -67.774 v 588.066 c 0,8.856 -7.175,16.028 -16.027,16.028 -8.855,0 -16.0233,-7.172 -16.0233,-16.028 V 108.285 H 68.8359 c -13.289,0 -24.0898,-10.8006 -24.0898,-24.0819 V 25.0313 c 0,-13.2891 10.8125,-24.089894 24.0898,-24.089894 H 1027.13 c 13.28,0 24.09,10.808594 24.09,24.089894 v 59.1718 c 0,13.2813 -10.81,24.0819 -24.09,24.0819"
         style="fill:#171717;fill-opacity:1;fill-rule:nonzero;stroke:none"
         id="path12" /><path
         d="m 547.98,663.18 c 32.715,0 64.79,-5.602 95.34,-16.645 l 13.02,31.914 c -34.699,12.727 -71.149,19.176 -108.36,19.176 -36.886,0 -73.031,-6.34 -107.449,-18.84 l 13.227,-31.855 c 30.203,10.785 61.898,16.25 94.222,16.25 z m 96.399,-19.032 -0.852,0.309 c -30.601,11.176 -62.746,16.84 -95.547,16.84 -32.41,0 -64.179,-5.531 -94.429,-16.438 l -0.844,-0.304 -14.668,35.324 0.922,0.336 c 34.902,12.801 71.582,19.289 109.019,19.289 37.762,0 74.747,-6.602 109.926,-19.621 l 0.914,-0.34 z m 30.101,-11.07 c 31.141,-15.762 58.817,-36.937 82.286,-62.961 l 24.371,24.371 c -26.739,29.321 -58.219,53.055 -93.61,70.575 z m 82.208,-65.699 -0.661,0.742 c -23.644,26.402 -51.625,47.824 -83.168,63.668 l -0.781,0.391 14.469,35.461 0.902,-0.446 c 36.239,-17.797 68.43,-42.054 95.684,-72.105 l 0.601,-0.664 z m -441.872,27.101 24.383,-24.371 c 23.731,26.329 51.766,47.688 83.348,63.496 l -13.238,31.879 C 373.555,647.922 341.773,624.039 314.816,594.48 Z m 24.457,-27.109 -27.054,27.047 0.601,0.664 c 27.469,30.293 59.957,54.695 96.563,72.531 l 0.898,0.442 14.676,-35.352 -0.789,-0.39 c -31.984,-15.887 -60.32,-37.489 -84.23,-64.2 z m -91.082,-86.711 31.895,-13.301 c 8.648,27.102 21.367,52.684 37.816,76.059 l -24.675,24.676 C 273.66,541.375 258.512,511.969 248.191,480.66 Z m 33.071,-15.832 -35.403,14.766 0.27,0.824 c 10.504,32.156 26.059,62.324 46.23,89.676 l 0.649,0.879 27.347,-27.344 -0.46,-0.649 C 303.141,519.305 290.246,493.344 281.57,465.813 Z m 496.801,78.59 c 16.699,-23.734 29.546,-49.73 38.203,-77.297 l 31.961,13.16 c -10.317,31.797 -25.618,61.664 -45.493,88.813 z m 37.019,-79.82 -0.305,0.984 c -8.679,27.992 -21.703,54.367 -38.711,78.398 l -0.457,0.649 27.344,27.344 0.649,-0.879 c 20.484,-27.781 36.191,-58.418 46.683,-91.063 l 0.266,-0.828 z M 232.414,354.301 h 34.445 v 27.754 c 0,17.468 1.621,34.976 4.825,52.047 l -32.422,13.511 c -4.543,-21.445 -6.848,-43.5 -6.848,-65.566 z m 36.328,-1.883 h -38.211 v 29.629 c 0,22.582 2.399,45.144 7.125,67.07 l 0.239,1.102 35.921,-14.969 -0.14,-0.75 c -3.274,-17.191 -4.934,-34.836 -4.934,-52.445 z m 560.363,1.883 h 34.442 v 27.746 c 0,21.59 -2.203,43.164 -6.551,64.141 L 824.512,432.82 c 3.047,-16.648 4.593,-33.726 4.593,-50.773 z m 36.325,-1.883 h -38.207 v 29.629 c 0,17.187 -1.582,34.406 -4.703,51.18 l -0.137,0.75 35.992,14.812 0.23,-1.105 c 4.528,-21.454 6.825,-43.536 6.825,-65.637 z M 232.414,320.363 v -102.32 l 34.445,1.258 V 320.363 Z M 230.531,216.09 v 106.156 h 38.211 V 217.484 Z m 598.574,1.777 34.442,-1.437 v 103.933 h -34.442 z m 36.325,-3.402 -38.207,1.598 V 322.246 H 865.43 Z M 494.25,172.012 c 16.375,-4.774 34.168,-5.766 54.031,-6.492 13.93,0.019 27.125,1.464 39.227,4.3 6.68,9.188 11.625,19.657 14.719,31.153 -19.602,-9.086 -40.012,-12.438 -60.684,-9.95 -14.484,1.743 -34.672,10.715 -48.594,43.582 -1.277,3.032 -2.511,6.282 -3.672,9.692 -2.078,-4.918 -3.769,-9.809 -5.035,-14.559 -6.031,-22.582 -2.758,-41.468 10.008,-57.726 z m 54.016,-8.375 -0.036,0.004 c -20.152,0.734 -38.187,1.746 -54.878,6.672 l -2.071,0.609 0.977,0.582 c -12.735,16.609 -15.949,35.828 -9.836,58.719 1.484,5.57 3.543,11.324 6.109,17.093 l 1,2.239 0.758,-2.332 c 1.367,-4.219 2.848,-8.219 4.395,-11.887 13.57,-32.031 33.093,-40.762 47.082,-42.445 20.961,-2.516 41.636,1.062 61.464,10.64 l 1.809,0.871 -0.484,-1.945 c -3.133,-12.617 -8.426,-24.066 -15.731,-34.027 l -0.207,-0.282 -0.336,-0.078 c -12.343,-2.925 -25.808,-4.414 -40.015,-4.433 z m 64.964,-54.403 h 91.922 c -0.293,9.594 -5.148,16.051 -13.418,17.782 l -75.742,15.918 c -4.488,-1.664 -9.144,-3.168 -13.859,-4.465 z m 93.821,-1.882 H 611.93 l -12.293,32.39 1.004,0.27 c 5.093,1.371 10.121,2.98 14.949,4.781 l 0.254,0.094 76.277,-16.032 c 9.488,-1.984 14.93,-9.476 14.93,-20.562 z m 122.054,1.882 h 34.442 v 73.231 l -34.442,1.441 z m 36.325,-1.882 h -38.207 v 78.515 l 38.207,-1.597 z m -633.016,1.875 h 34.445 v 76.113 l -34.445,-1.262 z m 36.328,-1.883 h -38.211 v 78.551 l 38.211,1.398 z m 32.055,1.883 h 56.066 c 0.36,26.336 15.762,45.828 40.383,50.988 l 34.758,7.305 c -40.988,32.253 -60.938,74.074 -57.715,121.054 -0.004,0.918 0.078,1.961 0.242,3.121 v 0.039 c 0.032,0.414 0.063,0.836 0.102,1.258 3.765,38.012 17.965,71.125 43.406,101.25 6.031,7.141 16.758,8.051 23.914,2.024 7.145,-6.043 8.051,-16.77 2.016,-23.914 -21.156,-25.059 -32.457,-51.325 -35.559,-82.664 l -0.113,-1.516 c -0.02,-0.227 -0.039,-0.43 -0.07,-0.625 -0.008,-0.242 -0.016,-0.442 -0.032,-0.645 -2.55,-34.242 10.903,-64.101 39.989,-88.789 -3.399,30.821 8.211,66.282 32.078,97.719 4.711,6.199 12.613,8.902 20.133,6.883 7.531,-2.027 13.015,-8.336 13.972,-16.067 5.071,-40.804 19.328,-60.507 31.215,-61.937 31.742,-3.801 54.645,13.477 63.266,19.984 l 0.293,0.227 c 5.726,4.324 13.285,5.078 19.742,1.973 6.469,-3.098 10.613,-9.477 10.816,-16.645 0.199,-7.32 -0.183,-21.781 -4.793,-38.664 5.172,3.906 10.071,8.285 14.586,13.039 30.098,31.699 39.594,76.637 38.508,97.516 -1.289,24.996 -8.91,48.914 -22.652,71.125 -6.176,-23.664 -20.91,-38.961 -39.735,-41.078 -20.633,-2.313 -39.758,12.218 -44.504,33.816 -4.476,20.289 1.786,36.711 7.313,51.195 7.961,20.871 14.836,38.895 -4.727,74.047 -6.797,12.215 -17.32,23.246 -31.3,32.82 1.453,-20.371 -2.184,-38.339 -10.817,-53.437 -10.781,-18.856 -27.902,-34.301 -45.98,-49.766 -3.446,-2.945 -7.832,-4.367 -12.352,-4.015 -4.516,0.351 -8.629,2.445 -11.57,5.89 -2.949,3.438 -4.379,7.825 -4.028,12.34 0.352,4.52 2.446,8.633 5.891,11.582 15.727,13.445 30.508,26.688 38.582,40.813 10.805,18.902 5.738,43.863 3.059,53.715 -2.25,8.308 0.433,16.921 7,22.48 6.586,5.555 15.539,6.762 23.367,3.148 17.566,-8.121 49.734,-26.593 67.805,-59.07 27.246,-48.969 15.414,-79.988 6.777,-102.637 -4.566,-11.984 -8.172,-21.437 -5.887,-31.816 1.11,-5.008 4.719,-7.688 7.598,-7.379 5.148,0.582 13.258,11.582 13.07,38.621 -0.062,9.16 5.426,17.219 13.973,20.535 8.57,3.325 18.074,1.071 24.211,-5.75 16.969,-18.816 45.871,-58.84 48.797,-115.422 1.226,-23.718 -7.184,-79.875 -47.793,-122.628 -4.371,-4.614 -9.032,-8.965 -13.868,-12.954 l 38.489,-8.093 c 25.75,-5.407 40.062,-23.496 40.379,-50.989 h 56.07 v 272.821 c 0,19.086 -2.195,38.117 -6.527,56.562 -0.114,0.403 -0.219,0.836 -0.309,1.274 -8.293,34.484 -23.672,66.246 -45.711,94.371 -0.172,0.203 -0.359,0.441 -0.547,0.691 -25.246,31.996 -58.269,57.512 -95.48,73.766 -0.074,0.027 -0.207,0.074 -0.344,0.133 -0.328,0.132 -0.66,0.281 -0.992,0.441 -30.778,13.23 -63.516,19.949 -97.278,19.949 -33.417,0 -65.851,-6.586 -96.41,-19.574 -0.183,-0.086 -0.386,-0.172 -0.597,-0.262 -0.047,-0.023 -0.153,-0.066 -0.262,-0.109 -37.785,-16.242 -71.262,-41.953 -96.848,-74.371 -0.148,-0.203 -0.332,-0.426 -0.515,-0.653 -21.77,-27.781 -37.047,-59.125 -45.426,-93.175 -0.106,-0.535 -0.234,-1.055 -0.379,-1.543 -4.473,-18.711 -6.746,-38.078 -6.746,-57.508 z m 57.945,-1.883 H 298.91 v 274.703 c 0,19.578 2.293,39.094 6.813,58 0.144,0.48 0.257,0.941 0.363,1.461 8.449,34.351 23.844,65.933 45.766,93.906 0.199,0.25 0.367,0.453 0.515,0.656 25.797,32.684 59.528,58.59 97.563,74.946 l 0.125,0.047 c 0.047,0.015 0.09,0.031 0.136,0.054 0.25,0.106 0.43,0.188 0.622,0.274 30.812,13.097 63.496,19.734 97.167,19.734 34.016,0 67.008,-6.77 98.051,-20.117 0.332,-0.156 0.637,-0.293 0.946,-0.418 0.113,-0.051 0.211,-0.086 0.312,-0.121 37.551,-16.403 70.824,-42.114 96.277,-74.367 0.18,-0.239 0.344,-0.45 0.516,-0.653 22.227,-28.363 37.727,-60.371 46.09,-95.152 0.086,-0.43 0.18,-0.817 0.289,-1.211 4.375,-18.625 6.59,-37.801 6.59,-57.031 V 107.352 h -59.828 v 0.941 c 0,27.035 -13.813,44.82 -38.895,50.09 v 0 l -42.363,8.906 1.551,1.246 c 5.324,4.27 10.441,8.992 15.214,14.028 40.172,42.292 48.493,97.8 47.282,121.242 -2.899,56 -31.516,95.621 -48.317,114.258 -5.605,6.23 -14.293,8.292 -22.132,5.253 -7.813,-3.031 -12.825,-10.398 -12.77,-18.765 0.211,-30.703 -9.555,-39.922 -14.75,-40.508 -3.641,-0.391 -8.254,2.582 -9.641,8.844 -2.402,10.929 1.289,20.613 5.961,32.875 8.512,22.324 20.16,52.867 -6.656,101.07 -17.812,32.008 -49.59,50.25 -66.949,58.273 -7.156,3.305 -15.34,2.204 -21.363,-2.878 -6,-5.079 -8.454,-12.95 -6.399,-20.543 2.742,-10.082 7.914,-35.633 -3.238,-55.145 -8.227,-14.387 -23.141,-27.75 -38.996,-41.309 -3.063,-2.621 -4.922,-6.281 -5.239,-10.296 -0.312,-4.016 0.961,-7.914 3.582,-10.973 2.618,-3.063 6.274,-4.922 10.29,-5.238 4.019,-0.313 7.918,0.953 10.976,3.574 17.949,15.351 34.942,30.672 45.574,49.266 8.711,15.242 12.219,33.507 10.422,54.292 l -0.172,1.946 1.629,-1.082 c 15.039,-9.985 26.313,-21.614 33.516,-34.559 19.988,-35.922 12.969,-54.324 4.84,-75.633 -5.434,-14.238 -11.586,-30.379 -7.231,-50.121 4.539,-20.652 22.797,-34.562 42.457,-32.343 18.563,2.085 33.008,17.71 38.645,41.796 l 0.508,2.176 1.203,-1.883 c 14.66,-23.019 22.773,-47.886 24.117,-73.914 1.101,-21.191 -8.52,-66.785 -39.02,-98.91 -5.234,-5.512 -10.976,-10.523 -17.062,-14.898 l -2.231,-1.602 0.778,2.633 c 5.25,17.766 5.683,33.144 5.472,40.734 -0.183,6.461 -3.918,12.211 -9.75,15 -5.816,2.801 -12.628,2.121 -17.781,-1.769 l -0.254,-0.196 c -8.836,-6.667 -32.172,-24.281 -64.676,-20.386 -12.609,1.511 -27.66,21.758 -32.855,63.57 -0.863,6.969 -5.809,12.652 -12.594,14.484 -6.781,1.821 -13.902,-0.617 -18.144,-6.207 -24.184,-31.851 -35.637,-67.828 -31.418,-98.699 l 0.324,-2.383 -1.855,1.528 c -30.848,25.39 -45.145,56.312 -42.497,91.906 0.016,0.191 0.024,0.391 0.032,0.578 l 0.011,0.176 c 0.032,0.164 0.043,0.336 0.059,0.496 l 0.117,1.559 c 3.145,31.757 14.578,58.351 35.996,83.714 5.364,6.352 4.559,15.887 -1.793,21.258 -6.359,5.36 -15.898,4.555 -21.261,-1.797 -25.184,-29.82 -39.243,-62.601 -42.969,-100.211 -0.039,-0.406 -0.07,-0.82 -0.102,-1.222 l -0.008,-0.102 c -0.156,-1.133 -0.226,-2.09 -0.226,-2.984 -3.227,-46.996 17.035,-88.727 58.586,-120.746 l 1.621,-1.246 -38.746,-8.141 c -23.988,-5.031 -38.891,-24.223 -38.891,-50.09 z m 32.067,1.883 h 91.925 l 10.618,27.976 c -5.973,1.36 -11.559,2.985 -17.039,4.965 l -72.086,-15.152 c -8.02,-1.68 -13.098,-8.453 -13.418,-17.789 z m 93.222,-1.883 H 388.91 v 0.941 c 0,10.766 5.723,18.645 14.934,20.57 l 72.605,15.266 0.25,-0.094 c 5.809,-2.109 11.735,-3.816 18.121,-5.222 l 1.063,-0.235 z m 34.996,1.883 h 57.907 l -8.778,23.125 c -1.851,-0.172 -6.566,-0.118 -19.414,0.203 -8.344,0.203 -18.605,0.457 -20.781,0.207 z m 60.633,-1.883 h -63.359 l 10.066,26.527 c 0.379,0.961 0.438,1.106 22.422,0.563 8.238,-0.204 18.492,-0.454 19.586,-0.168 -0.102,-0.028 -0.328,-0.149 -0.465,-0.418 l 0.805,-0.414 0.91,0.347 0.184,-0.468 h -0.004 z M 77.7422,33.9375 H 1018.22 V 75.293 H 77.7422 Z M 1020.1,32.0547 H 75.8594 V 77.1758 H 1020.1 Z M 68.8359,107.344 c -12.7617,0 -23.1484,-10.3792 -23.1484,-23.1409 V 25.0313 c 0,-12.7657 10.3867,-23.14849 23.1484,-23.14849 H 1027.13 c 12.76,0 23.14,10.38279 23.14,23.14849 v 59.1718 c 0,12.7617 -10.38,23.1409 -23.14,23.1409 h -31.704 v 589.015 c 0,8.321 -6.77,15.086 -15.086,15.086 -8.32,0 -15.086,-6.765 -15.086,-15.086 V 107.344 h -69.652 v 274.703 c 0,80.348 -28.172,158.766 -79.325,220.808 -0.211,0.27 -0.414,0.52 -0.632,0.762 -66.454,80.121 -164,126.059 -267.665,126.059 -103.66,0 -201.21,-45.938 -267.636,-126.028 -0.246,-0.273 -0.446,-0.523 -0.641,-0.773 -51.172,-62.062 -79.344,-140.48 -79.344,-220.828 V 107.352 h -69.652 v 589.007 c 0,8.321 -6.766,15.086 -15.086,15.086 -8.316,0 -15.082,-6.765 -15.082,-15.086 V 107.344 Z M 1027.13,0 H 68.8359 C 55.0352,0 43.8047,11.2305 43.8047,25.0313 v 59.1718 c 0,13.8008 11.2305,25.0239 25.0312,25.0239 h 29.8204 v 587.132 c 0,9.356 7.6097,16.969 16.9647,16.969 9.359,0 16.969,-7.613 16.969,-16.969 V 109.234 h 65.89 v 272.813 c 0,41.195 7.129,81.551 21.2,119.937 13.59,37.086 33.289,71.426 58.554,102.071 0.207,0.265 0.438,0.55 0.688,0.824 66.758,80.496 164.836,126.68 269.058,126.68 104.223,0 202.301,-46.184 269.086,-126.707 0.223,-0.247 0.457,-0.532 0.676,-0.817 25.25,-30.625 44.953,-64.965 58.539,-102.051 14.071,-38.386 21.203,-78.742 21.203,-119.937 v -272.82 h 65.887 v 587.132 c 0,9.356 7.613,16.969 16.969,16.969 9.355,0 16.969,-7.613 16.969,-16.969 V 109.227 h 29.821 c 13.8,0 25.03,-11.2231 25.03,-25.0239 V 25.0313 C 1052.16,11.2305 1040.93,0 1027.13,0"
         style="fill:#171717;fill-opacity:1;fill-rule:nonzero;stroke:none"
         id="path14" /><path
         d="M 1062.97,857.32 H 32.9961 v 55.356 H 1062.97 Z m -49.77,-40.136 c 0,-16.668 -13.563,-30.231 -30.231,-30.231 H 112.992 c -16.6678,0 -30.2303,13.563 -30.2303,30.231 v 8.082 H 1013.2 Z m 53.22,127.546 H 29.5469 c -15.7774,0 -28.605494,-12.832 -28.605494,-28.605 v -62.254 c 0,-15.777 12.828094,-28.605 28.605494,-28.605 H 50.707 v -8.082 c 0,-34.34 27.9375,-62.286 62.285,-62.286 h 869.985 c 34.343,0 62.283,27.946 62.283,62.286 v 8.082 h 21.16 c 15.77,0 28.6,12.836 28.6,28.605 v 62.254 c 0,15.773 -12.83,28.605 -28.6,28.605"
         style="fill:#171717;fill-opacity:1;fill-rule:nonzero;stroke:none"
         id="path16" /><path
         d="M 33.9375,858.258 H 1062.03 v 53.476 H 33.9375 Z M 1063.91,856.379 H 32.0547 v 57.238 H 1063.91 Z M 83.7031,824.324 v -7.14 c 0,-16.149 13.1407,-29.289 29.2889,-29.289 h 869.977 c 16.152,0 29.291,13.14 29.291,29.289 v 7.14 z M 982.969,786.012 H 112.992 c -17.1873,0 -31.1717,13.984 -31.1717,31.172 v 9.023 H 1014.14 v -9.023 c 0,-17.188 -13.98,-31.172 -31.171,-31.172 z M 29.5469,943.789 c -15.2539,0 -27.66409,-12.41 -27.66409,-27.664 v -62.254 c 0,-15.254 12.41019,-27.664 27.66409,-27.664 h 22.1015 v -9.023 c 0,-33.825 27.5196,-61.344 61.3436,-61.344 h 869.985 c 33.823,0 61.333,27.519 61.333,61.344 v 9.023 h 22.11 c 15.25,0 27.66,12.41 27.66,27.664 v 62.254 c 0,15.254 -12.41,27.664 -27.66,27.664 z M 982.977,753.957 H 112.992 c -34.8631,0 -63.2264,28.363 -63.2264,63.227 v 7.14 H 29.5469 C 13.2539,824.324 0,837.578 0,853.871 v 62.254 c 0,16.293 13.2539,29.547 29.5469,29.547 H 1066.42 c 16.29,0 29.54,-13.254 29.54,-29.547 v -62.254 c 0,-16.293 -13.25,-29.547 -29.54,-29.547 h -20.22 v -7.14 c 0,-34.864 -28.36,-63.227 -63.223,-63.227"
         style="fill:#171717;fill-opacity:1;fill-rule:nonzero;stroke:none"
         id="path18" /></g></g></svg>
