<?xml version="1.0" encoding="iso-8859-1"?>
<!-- Uploaded to: SVG Repo, www.svgrepo.com, Generator: SVG Repo Mixer Tools -->
<svg fill="#000000" height="800px" width="800px" version="1.1" id="Layer_1" xmlns="http://www.w3.org/2000/svg" xmlns:xlink="http://www.w3.org/1999/xlink" 
	 viewBox="0 0 512 512" xml:space="preserve">
<g>
	<g>
		<path d="M394.502,0H117.498c-5.633,0-10.199,4.566-10.199,10.199v491.602c0,5.633,4.566,10.199,10.199,10.199h277.004
			c5.633,0,10.199-4.566,10.199-10.199V10.199C404.701,4.566,400.134,0,394.502,0z M384.303,491.602H127.697V20.398h256.606V491.602
			z"/>
	</g>
</g>
<g>
	<g>
		<path d="M360.032,36.717H151.968c-5.633,0-10.199,4.566-10.199,10.199v418.167c0,5.633,4.566,10.199,10.199,10.199h208.064
			c5.633,0,10.199-4.566,10.199-10.199V46.916C370.231,41.283,365.664,36.717,360.032,36.717z M349.833,454.884H162.167V57.116
			h187.665V454.884z"/>
	</g>
</g>
<g>
	<g>
		<path d="M300.877,219.283c-18.559,0-33.657,15.099-33.657,33.657s15.099,33.657,33.657,33.657
			c18.559,0,33.657-15.099,33.657-33.657S319.435,219.283,300.877,219.283z M300.877,266.199c-7.311,0-13.259-5.948-13.259-13.259
			s5.948-13.259,13.259-13.259s13.259,5.948,13.259,13.259S308.187,266.199,300.877,266.199z"/>
	</g>
</g>
<g>
	<g>
		<path d="M245.801,424.287h-8.159c-5.633,0-10.199,4.566-10.199,10.199c0,5.633,4.566,10.199,10.199,10.199h8.159
			c5.633,0,10.199-4.566,10.199-10.199C256,428.853,251.434,424.287,245.801,424.287z"/>
	</g>
</g>
<g>
	<g>
		<path d="M326.375,424.287h-46.916c-5.632,0-10.199,4.566-10.199,10.199c0,5.633,4.567,10.199,10.199,10.199h46.916
			c5.633,0,10.199-4.566,10.199-10.199C336.574,428.853,332.007,424.287,326.375,424.287z"/>
	</g>
</g>
</svg>