<?xml version="1.0" encoding="UTF-8"?>
<svg xmlns="http://www.w3.org/2000/svg" xmlns:xlink="http://www.w3.org/1999/xlink" width="62.51pt" height="101.81pt" viewBox="0 0 62.51 101.81" version="1.1">
<defs>
<clipPath id="clip1">
  <path d="M 0 0 L 62.511719 0 L 62.511719 101.808594 L 0 101.808594 Z M 0 0 "/>
</clipPath>
</defs>
<g id="surface1">
<path style=" stroke:none;fill-rule:nonzero;fill:rgb(6.698608%,8.599854%,8.999634%);fill-opacity:1;" d="M 34.453125 75.289063 C 33.761719 75.289063 33.203125 75.847656 33.203125 76.539063 L 33.203125 84.664063 L 29.3125 84.664063 L 29.3125 76.539063 C 29.3125 75.847656 28.753906 75.289063 28.0625 75.289063 L 26.625 75.289063 L 31.257813 69.132813 L 35.890625 75.289063 Z M 32.257813 66.304688 C 31.78125 65.675781 30.730469 65.675781 30.257813 66.304688 L 23.121094 75.785156 C 22.835938 76.164063 22.789063 76.671875 23 77.09375 C 23.210938 77.519531 23.644531 77.789063 24.117188 77.789063 L 26.8125 77.789063 L 26.8125 85.914063 C 26.8125 86.601563 27.371094 87.164063 28.0625 87.164063 L 34.453125 87.164063 C 35.144531 87.164063 35.703125 86.601563 35.703125 85.914063 L 35.703125 77.789063 L 38.394531 77.789063 C 38.871094 77.789063 39.304688 77.519531 39.515625 77.09375 C 39.726563 76.671875 39.679688 76.164063 39.394531 75.785156 L 32.257813 66.304688 "/>
<path style=" stroke:none;fill-rule:nonzero;fill:rgb(6.698608%,8.599854%,8.999634%);fill-opacity:1;" d="M 28.0625 24.949219 C 28.753906 24.949219 29.3125 24.390625 29.3125 23.699219 L 29.3125 15.574219 L 33.203125 15.574219 L 33.203125 23.699219 C 33.203125 24.390625 33.761719 24.949219 34.453125 24.949219 L 35.890625 24.949219 L 31.257813 31.101563 L 26.625 24.949219 Z M 30.257813 33.933594 C 30.496094 34.246094 30.863281 34.429688 31.257813 34.429688 C 31.648438 34.429688 32.019531 34.246094 32.257813 33.933594 L 39.394531 24.449219 C 39.679688 24.074219 39.726563 23.566406 39.515625 23.140625 C 39.304688 22.71875 38.871094 22.449219 38.394531 22.449219 L 35.703125 22.449219 L 35.703125 14.324219 C 35.703125 13.632813 35.144531 13.074219 34.453125 13.074219 L 28.0625 13.074219 C 27.371094 13.074219 26.8125 13.632813 26.8125 14.324219 L 26.8125 22.449219 L 24.117188 22.449219 C 23.644531 22.449219 23.210938 22.71875 23 23.140625 C 22.789063 23.566406 22.835938 24.070313 23.121094 24.449219 L 30.257813 33.933594 "/>
<g clip-path="url(#clip1)" clip-rule="nonzero">
<path style=" stroke:none;fill-rule:nonzero;fill:rgb(6.698608%,8.599854%,8.999634%);fill-opacity:1;" d="M 32.507813 99.308594 L 32.507813 90.554688 C 32.507813 89.867188 31.949219 89.304688 31.257813 89.304688 C 30.566406 89.304688 30.007813 89.867188 30.007813 90.554688 L 30.007813 99.308594 L 2.5 99.308594 L 2.5 78.664063 L 19.914063 78.664063 C 20.605469 78.664063 21.164063 78.105469 21.164063 77.414063 C 21.164063 76.726563 20.605469 76.164063 19.914063 76.164063 L 2.5 76.164063 L 2.5 55.519531 L 30.007813 55.519531 L 30.007813 62.703125 C 30.007813 63.394531 30.566406 63.953125 31.257813 63.953125 C 31.949219 63.953125 32.507813 63.394531 32.507813 62.703125 L 32.507813 55.519531 L 60.015625 55.519531 L 60.015625 76.164063 L 42.597656 76.164063 C 41.910156 76.164063 41.347656 76.726563 41.347656 77.414063 C 41.347656 78.105469 41.910156 78.664063 42.597656 78.664063 L 60.015625 78.664063 L 60.015625 99.308594 Z M 30.007813 2.496094 L 30.007813 9.679688 C 30.007813 10.371094 30.566406 10.929688 31.257813 10.929688 C 31.949219 10.929688 32.507813 10.371094 32.507813 9.679688 L 32.507813 2.496094 L 60.015625 2.496094 L 60.015625 23.140625 L 42.597656 23.140625 C 41.910156 23.140625 41.347656 23.703125 41.347656 24.390625 C 41.347656 25.082031 41.910156 25.640625 42.597656 25.640625 L 60.015625 25.640625 L 60.015625 46.285156 L 32.507813 46.285156 L 32.507813 37.53125 C 32.507813 36.84375 31.949219 36.28125 31.257813 36.28125 C 30.566406 36.28125 30.007813 36.84375 30.007813 37.53125 L 30.007813 46.285156 L 2.5 46.285156 L 2.5 25.640625 L 19.914063 25.640625 C 20.605469 25.640625 21.164063 25.082031 21.164063 24.390625 C 21.164063 23.703125 20.605469 23.140625 19.914063 23.140625 L 2.5 23.140625 L 2.5 2.496094 Z M 2.5 53.019531 L 2.5 48.785156 L 60.015625 48.785156 L 60.015625 53.019531 Z M 61.265625 -0.00390625 L 1.25 -0.00390625 C 0.558594 -0.00390625 0 0.558594 0 1.246094 L 0 100.558594 C 0 101.25 0.558594 101.808594 1.25 101.808594 L 61.265625 101.808594 C 61.953125 101.808594 62.515625 101.25 62.515625 100.558594 L 62.515625 1.246094 C 62.515625 0.558594 61.953125 -0.00390625 61.265625 -0.00390625 "/>
</g>
</g>
</svg>
