<?xml version="1.0" encoding="UTF-8"?>
<svg xmlns="http://www.w3.org/2000/svg" xmlns:xlink="http://www.w3.org/1999/xlink" width="71.86pt" height="72.11pt" viewBox="0 0 71.86 72.11" version="1.1">
<defs>
<clipPath id="clip1">
  <path d="M 35 45 L 71.859375 45 L 71.859375 59 L 35 59 Z M 35 45 "/>
</clipPath>
<clipPath id="clip2">
  <path d="M 57 54 L 71.859375 54 L 71.859375 69 L 57 69 Z M 57 54 "/>
</clipPath>
<clipPath id="clip3">
  <path d="M 0 39 L 33 39 L 33 72.109375 L 0 72.109375 Z M 0 39 "/>
</clipPath>
</defs>
<g id="surface1">
<path style=" stroke:none;fill-rule:nonzero;fill:rgb(6.698608%,8.599854%,8.999634%);fill-opacity:1;" d="M 16.1875 37.160156 C 15.082031 37.160156 14.183594 36.265625 14.183594 35.160156 L 14.183594 7.03125 L 8.261719 13.304688 C 7.503906 14.101563 6.238281 14.144531 5.433594 13.382813 C 4.632813 12.625 4.59375 11.359375 5.355469 10.550781 L 14.734375 0.621094 C 15.296875 0.0234375 16.167969 -0.164063 16.925781 0.136719 C 17.6875 0.441406 18.1875 1.175781 18.1875 2 L 18.1875 35.160156 C 18.1875 36.265625 17.292969 37.160156 16.1875 37.160156 "/>
<path style=" stroke:none;fill-rule:nonzero;fill:rgb(6.698608%,8.599854%,8.999634%);fill-opacity:1;" d="M 25.804688 13.929688 C 25.285156 13.929688 24.761719 13.726563 24.371094 13.320313 L 14.75 3.390625 C 13.980469 2.597656 14 1.328125 14.796875 0.558594 C 15.582031 -0.203125 16.855469 -0.191406 17.621094 0.605469 L 27.242188 10.535156 C 28.011719 11.332031 27.992188 12.597656 27.195313 13.367188 C 26.808594 13.742188 26.308594 13.929688 25.804688 13.929688 "/>
<g clip-path="url(#clip1)" clip-rule="nonzero">
<path style=" stroke:none;fill-rule:nonzero;fill:rgb(6.698608%,8.599854%,8.999634%);fill-opacity:1;" d="M 69.855469 58.824219 L 37.308594 58.824219 C 36.203125 58.824219 35.308594 57.929688 35.308594 56.820313 C 35.308594 55.714844 36.203125 54.820313 37.308594 54.820313 L 64.824219 54.820313 L 58.550781 48.902344 C 57.75 48.144531 57.710938 46.875 58.46875 46.074219 C 59.230469 45.269531 60.496094 45.230469 61.300781 45.992188 L 71.230469 55.367188 C 71.824219 55.929688 72.019531 56.800781 71.714844 57.5625 C 71.414063 58.324219 70.675781 58.824219 69.855469 58.824219 "/>
</g>
<g clip-path="url(#clip2)" clip-rule="nonzero">
<path style=" stroke:none;fill-rule:nonzero;fill:rgb(6.698608%,8.599854%,8.999634%);fill-opacity:1;" d="M 59.925781 68.445313 C 59.402344 68.445313 58.878906 68.242188 58.488281 67.835938 C 57.71875 67.042969 57.738281 65.773438 58.53125 65.003906 L 68.460938 55.382813 C 69.253906 54.617188 70.523438 54.632813 71.292969 55.429688 C 72.0625 56.222656 72.042969 57.492188 71.25 58.261719 L 61.320313 67.882813 C 60.929688 68.257813 60.425781 68.445313 59.925781 68.445313 "/>
</g>
<g clip-path="url(#clip3)" clip-rule="nonzero">
<path style=" stroke:none;fill-rule:nonzero;fill:rgb(6.698608%,8.599854%,8.999634%);fill-opacity:1;" d="M 4 68.109375 L 28.371094 68.109375 L 28.371094 43.738281 L 4 43.738281 Z M 30.371094 72.109375 L 2 72.109375 C 0.894531 72.109375 0 71.214844 0 70.109375 L 0 41.738281 C 0 40.632813 0.894531 39.738281 2 39.738281 L 30.371094 39.738281 C 31.476563 39.738281 32.371094 40.632813 32.371094 41.738281 L 32.371094 70.109375 C 32.371094 71.214844 31.476563 72.109375 30.371094 72.109375 "/>
</g>
</g>
</svg>
