<?xml version="1.0" encoding="UTF-8" standalone="no"?>
<svg
   xmlns:dc="http://purl.org/dc/elements/1.1/"
   xmlns:cc="http://creativecommons.org/ns#"
   xmlns:rdf="http://www.w3.org/1999/02/22-rdf-syntax-ns#"
   xmlns:svg="http://www.w3.org/2000/svg"
   xmlns="http://www.w3.org/2000/svg"
   viewBox="0 0 119.37333 119.37333"
   height="119.37333"
   width="119.37333"
   xml:space="preserve"
   id="svg2"
   version="1.1"><metadata
     id="metadata8"><rdf:RDF><cc:Work
         rdf:about=""><dc:format>image/svg+xml</dc:format><dc:type
           rdf:resource="http://purl.org/dc/dcmitype/StillImage" /></cc:Work></rdf:RDF></metadata><defs
     id="defs6" /><g
     transform="matrix(1.3333333,0,0,-1.3333333,0,119.37333)"
     id="g10"><g
       transform="scale(0.1)"
       id="g12"><path
         id="path14"
         style="fill:#171717;fill-opacity:1;fill-rule:nonzero;stroke:none"
         d="m 83.9453,139.926 v 27.961 H 223.836 v -27.961 z m 139.8907,83.91 V 195.848 H 83.9453 v 27.988 z m 13.98,28.004 H 69.9414 c -7.7266,0 -13.9805,-6.266 -13.9805,-13.992 V 125.906 c 0,-7.722 6.2539,-13.992 13.9805,-13.992 H 237.816 c 7.727,0 13.993,6.27 13.993,13.992 v 111.942 c 0,7.726 -6.266,13.992 -13.993,13.992" /><path
         id="path16"
         style="fill:#171717;fill-opacity:1;fill-rule:nonzero;stroke:none"
         d="M 237.816,307.766 H 69.9414 c -7.7266,0 -13.9805,-6.266 -13.9805,-13.993 0,-7.722 6.2539,-13.968 13.9805,-13.968 H 237.816 c 7.727,0 13.993,6.246 13.993,13.968 0,7.727 -6.266,13.993 -13.993,13.993" /><path
         id="path18"
         style="fill:#171717;fill-opacity:1;fill-rule:nonzero;stroke:none"
         d="M 27.9844,27.9844 V 55.9922 H 867.344 V 27.9844 Z M 279.793,447.691 V 363.734 H 27.9844 v 83.957 z M 573.57,363.734 H 307.758 v 83.957 H 573.57 Z M 307.758,335.773 H 573.57 V 251.84 H 307.758 Z m -279.7736,0 H 279.793 V 83.9531 H 27.9844 Z M 307.758,83.9531 V 223.836 H 573.57 V 83.9531 Z m 559.586,0 H 601.574 V 447.691 h 265.77 z M 881.313,475.652 H 761.219 l 4.086,4.094 c 5.484,5.461 5.484,14.317 0,19.777 -5.461,5.465 -14.317,5.465 -19.801,0 l -4.07,-4.07 v 50.16 c 0,7.684 6.265,13.973 13.992,13.973 7.703,0 13.996,-6.289 13.996,-13.973 0,-7.722 6.242,-13.992 13.969,-13.992 7.746,0 13.968,6.27 13.968,13.992 0,23.133 -18.8,41.934 -41.933,41.934 -23.133,0 -41.977,-18.801 -41.977,-41.934 V 475.652 H 587.582 293.773 13.9844 C 6.25781,475.652 0,469.387 0,461.66 V 71.6992 69.9609 13.9922 C 0,6.26563 6.25781,0 13.9844,0 H 881.313 c 7.75,0 13.972,6.26563 13.972,13.9922 V 69.9609 71.6992 461.66 c 0,7.727 -6.222,13.992 -13.972,13.992" /><path
         id="path20"
         style="fill:#171717;fill-opacity:1;fill-rule:nonzero;stroke:none"
         d="m 867.344,671.504 h -265.77 v 195.848 h 265.77 z M 307.801,867.352 H 573.57 V 671.504 H 307.801 Z M 279.793,671.504 H 27.9844 v 22.172 l 89.7226,89.734 h 72.344 l 89.742,-89.734 z m 601.52,223.832 H 587.582 c -0.008,0 -0.016,-0.004 -0.023,-0.004 -0.008,0 -0.012,0.004 -0.02,0.004 H 293.797 c -7.727,0 -13.981,-6.266 -13.981,-14.004 V 733.227 l -69.984,69.984 v 78.121 c 0,7.738 -6.254,14.004 -13.98,14.004 -7.727,0 -13.981,-6.266 -13.981,-14.004 V 811.395 H 125.91 v 69.937 c 0,7.738 -6.254,14.004 -14.004,14.004 -7.722,0 -13.9802,-6.266 -13.9802,-14.004 V 803.191 L 4.10156,709.367 C 1.48047,706.734 0,703.176 0,699.465 v -41.953 c 0,-7.703 6.25781,-13.973 13.9844,-13.973 H 293.773 c 0.004,0 0.008,0 0.012,0 0.004,0 0.008,0 0.012,0 h 293.742 c 0.008,0 0.012,0.004 0.02,0.004 0.007,0 0.015,-0.004 0.023,-0.004 h 293.731 c 7.75,0 13.972,6.27 13.972,13.973 v 223.82 c 0,7.738 -6.222,14.004 -13.972,14.004" /><path
         id="path22"
         style="fill:#171717;fill-opacity:1;fill-rule:nonzero;stroke:none"
         d="m 83.9453,391.699 c 7.7578,0 13.9805,6.266 13.9805,13.992 0,7.723 -6.2227,13.993 -13.9805,13.993 -7.7148,0 -14.0039,-6.27 -14.0039,-13.993 0,-7.726 6.2891,-13.992 14.0039,-13.992" /><path
         id="path24"
         style="fill:#171717;fill-opacity:1;fill-rule:nonzero;stroke:none"
         d="m 167.863,391.699 c 7.762,0 14.008,6.266 14.008,13.992 0,7.723 -6.246,13.993 -14.008,13.993 -7.703,0 -13.98,-6.27 -13.98,-13.993 0,-7.726 6.277,-13.992 13.98,-13.992" /><path
         id="path26"
         style="fill:#171717;fill-opacity:1;fill-rule:nonzero;stroke:none"
         d="m 223.836,391.699 c 7.746,0 13.98,6.266 13.98,13.992 0,7.723 -6.234,13.993 -13.98,13.993 -7.727,0 -14.004,-6.27 -14.004,-13.993 0,-7.726 6.277,-13.992 14.004,-13.992" /><path
         id="path28"
         style="fill:#171717;fill-opacity:1;fill-rule:nonzero;stroke:none"
         d="m 643.512,419.684 c -7.727,0 -13.996,-6.27 -13.996,-13.993 0,-7.726 6.269,-13.992 13.996,-13.992 7.742,0 13.992,6.266 13.992,13.992 0,7.723 -6.25,13.993 -13.992,13.993" /><path
         id="path30"
         style="fill:#171717;fill-opacity:1;fill-rule:nonzero;stroke:none"
         d="m 643.512,699.465 c 7.742,0 13.992,6.269 13.992,14.004 0,7.726 -6.25,13.992 -13.992,13.992 -7.727,0 -13.996,-6.266 -13.996,-13.992 0,-7.735 6.269,-14.004 13.996,-14.004" /><path
         id="path32"
         style="fill:#171717;fill-opacity:1;fill-rule:nonzero;stroke:none"
         d="m 531.594,727.461 c -7.77,0 -13.992,-6.266 -13.992,-13.992 0,-7.735 6.222,-14.004 13.992,-14.004 7.722,0 13.988,6.269 13.988,14.004 0,7.726 -6.266,13.992 -13.988,13.992" /><path
         id="path34"
         style="fill:#171717;fill-opacity:1;fill-rule:nonzero;stroke:none"
         d="m 433.668,391.699 h 13.992 c 7.735,0 13.981,6.266 13.981,13.992 0,7.723 -6.246,13.993 -13.981,13.993 h -13.992 c -7.738,0 -13.984,-6.27 -13.984,-13.993 0,-7.726 6.246,-13.992 13.984,-13.992" /><path
         id="path36"
         style="fill:#171717;fill-opacity:1;fill-rule:nonzero;stroke:none"
         d="m 447.66,307.766 h -13.992 c -7.738,0 -13.984,-6.266 -13.984,-13.993 0,-7.722 6.246,-13.968 13.984,-13.968 h 13.992 c 7.735,0 13.981,6.246 13.981,13.968 0,7.727 -6.246,13.993 -13.981,13.993" /><path
         id="path38"
         style="fill:#171717;fill-opacity:1;fill-rule:nonzero;stroke:none"
         d="m 447.66,195.848 h -13.992 c -7.738,0 -13.984,-6.246 -13.984,-13.969 0,-7.727 6.246,-13.992 13.984,-13.992 h 13.992 c 7.735,0 13.981,6.265 13.981,13.992 0,7.723 -6.246,13.969 -13.981,13.969" /></g></g></svg>