<?xml version="1.0" encoding="UTF-8" standalone="no"?>
<svg
   xmlns:dc="http://purl.org/dc/elements/1.1/"
   xmlns:cc="http://creativecommons.org/ns#"
   xmlns:rdf="http://www.w3.org/1999/02/22-rdf-syntax-ns#"
   xmlns:svg="http://www.w3.org/2000/svg"
   xmlns="http://www.w3.org/2000/svg"
   viewBox="0 0 149.49333 102.12"
   height="102.12"
   width="149.49333"
   xml:space="preserve"
   id="svg2"
   version="1.1"><metadata
     id="metadata8"><rdf:RDF><cc:Work
         rdf:about=""><dc:format>image/svg+xml</dc:format><dc:type
           rdf:resource="http://purl.org/dc/dcmitype/StillImage" /></cc:Work></rdf:RDF></metadata><defs
     id="defs6" /><g
     transform="matrix(1.3333333,0,0,-1.3333333,0,102.12)"
     id="g10"><g
       transform="scale(0.1)"
       id="g12"><path
         id="path14"
         style="fill:#171717;fill-opacity:1;fill-rule:nonzero;stroke:none"
         d="m 871.188,389.332 -56.192,-17.801 22.977,-45.949 c 8.859,-16.723 14.629,-37.711 15.07,-54.809 0.293,-10.761 -1.086,-31.589 -2.414,-50.832 h -0.399 l -0.031,-6.257 c -0.828,-12.051 -1.59,-23.329 -1.902,-31.403 -0.508,-13.398 -8.731,-29.683 -18.633,-30.609 -135.5,-12.723 -203.516,-19.106 -272.012,-19.106 -69.043,0 -140.168,6.512 -281.867,19.485 -6.531,0.597 -11.836,13.187 -13.504,24.726 -1.308,9.075 -2.343,23.645 -3.039,38.86 l -0.008,4.304 h -0.175 c -0.782,18.942 -1.036,38.196 -0.664,48.61 0.429,12.402 5.156,33.621 14.324,52.285 l 24.57,44.828 -47.273,14.973 c -3.254,1.023 -5.813,3.187 -7.383,6.218 -1.602,3.067 -1.895,6.403 -0.871,9.633 1.691,5.313 6.554,8.883 12.101,8.883 1.289,0 2.559,-0.199 3.809,-0.598 l 51.66,-16.355 0.527,1.207 c 62.032,-13.879 139.766,-15.445 222.899,-15.445 10.605,0 21.308,0.023 32.062,0.043 l 32.227,0.05 c 43.867,0 131.797,0.028 207.539,20.856 l 0.125,-0.27 16.73,5.297 0.098,0.032 42.07,13.32 c 6.2,1.98 13.77,-1.754 15.829,-8.254 2.109,-6.668 -1.59,-13.813 -8.25,-15.922 z M 849.723,92.9102 c 0,-5.4493 0.007,-13.1446 -0.684,-17.3985 h -69.394 c -0.704,4.2617 -0.696,11.9883 -0.696,17.4571 v 1.1367 c 0,0 0.012,5.5781 0.031,12.6525 16.954,1.57 34.961,3.262 54.481,5.094 5.852,0.546 11.309,2.132 16.359,4.48 z m -519.219,0.0312 c 0,-5.4609 0,-13.1758 -0.684,-17.4297 h -69.414 c -0.683,4.2539 -0.683,11.961 -0.683,17.4141 l -0.078,22.4572 c 3.964,-1.555 8.085,-2.766 12.5,-3.164 20.957,-1.922 40.214,-3.68 58.32,-5.321 0.019,-7.1246 0.039,-12.7535 0.039,-12.7535 z m 32.012,418.2736 c 43.945,18.027 108.816,27.957 182.734,27.957 75.867,0 152.305,-10.52 204.461,-28.141 L 787.164,431.93 C 718.148,414.336 637.77,414.273 597.047,414.273 l -32.317,-0.05 c -89.277,-0.176 -174.07,-0.325 -238.718,12.711 z M 867.359,454.07 c -5.461,0 -10.82,-0.832 -15.879,-2.453 l -25.558,-8.086 -47.332,99.981 -16.094,5.426 c -56.047,18.929 -137.266,30.234 -217.246,30.234 -79.238,0 -149.687,-11.059 -198.34,-31.121 l -14.64,-6.016 -45.282,-104.586 -17.246,5.461 c -5.156,1.633 -10.5,2.461 -15.879,2.461 -23.039,0 -43.222,-14.769 -50.215,-36.766 -4.257,-13.378 -3.027,-27.644 3.477,-40.187 6.504,-12.488 17.449,-21.695 30.82,-25.922 l 0.899,-0.285 -1.602,-2.926 c -10.722,-21.773 -18.117,-48.992 -18.828,-69.324 -0.391,-11.168 -0.137,-33.563 0.84,-55.457 l 0.469,-121.5626 c 0,-11.9726 0,-23.2891 3.672,-33.3672 5.585,-15.2929 18.718,-24.0625 36.054,-24.0625 h 71.317 c 17.336,0 30.48,8.7735 36.066,24.0664 3.672,10.086 3.672,21.3985 3.672,33.375 v 1.2305 c 0,0 -0.02,3.8086 -0.02,9.1524 81.786,-7.1641 134.754,-10.7696 187.168,-10.7696 0,0 0,0 0.008,0 51.973,0 103.078,3.5274 181.309,10.5356 -0.008,-5.2348 -0.02,-8.9418 -0.02,-8.9575 V 92.9844 C 738.941,81 738.941,69.6836 742.613,59.5938 748.199,44.293 761.344,35.5117 778.676,35.5117 h 71.328 c 17.336,0 30.48,8.7696 36.055,24.0586 3.683,10.0781 3.671,21.3867 3.664,33.3555 l 0.468,119.3472 c 0.028,0.364 0.059,0.707 0.079,1.067 1.543,22.183 3.125,45.117 2.753,58.484 -0.585,23.211 -7.949,50.301 -19.484,72.059 l -1.824,3.656 11.551,3.656 c 27.668,8.77 43.058,38.422 34.308,66.129 -6.972,21.985 -27.148,36.746 -50.215,36.746" /><path
         id="path16"
         style="fill:#171717;fill-opacity:1;fill-rule:nonzero;stroke:none"
         d="m 335.465,233.379 c -9.395,0 -17.031,7.641 -17.031,17.035 0,9.402 7.636,17.051 17.031,17.051 9.394,0 17.051,-7.649 17.051,-17.051 0,-9.394 -7.657,-17.035 -17.051,-17.035 z m 0,74.086 c -31.445,0 -57.031,-25.59 -57.031,-57.051 0,-31.449 25.586,-57.035 57.031,-57.035 31.453,0 57.051,25.586 57.051,57.035 0,31.461 -25.598,57.051 -57.051,57.051" /><path
         id="path18"
         style="fill:#171717;fill-opacity:1;fill-rule:nonzero;stroke:none"
         d="m 792.34,250.414 c 0,-9.394 -7.656,-17.035 -17.051,-17.035 -9.394,0 -17.043,7.641 -17.043,17.035 0,9.402 7.649,17.051 17.043,17.051 9.395,0 17.051,-7.649 17.051,-17.051 z m -74.094,0 c 0,-31.449 25.586,-57.035 57.043,-57.035 31.453,0 57.051,25.586 57.051,57.035 0,31.461 -25.598,57.051 -57.051,57.051 -31.457,0 -57.043,-25.59 -57.043,-57.051" /><path
         id="path20"
         style="fill:#171717;fill-opacity:1;fill-rule:nonzero;stroke:none"
         d="M 680.191,228.023 H 433.59 c -11.055,0 -20,-8.957 -20,-20 0,-11.046 8.945,-20 20,-20 h 246.601 c 11.036,0 20,8.954 20,20 0,11.043 -8.964,20 -20,20" /><path
         id="path22"
         style="fill:#171717;fill-opacity:1;fill-rule:nonzero;stroke:none"
         d="M 680.191,291.52 H 433.59 c -11.055,0 -20,-8.957 -20,-20 0,-11.047 8.945,-20 20,-20 h 246.601 c 11.036,0 20,8.953 20,20 0,11.043 -8.964,20 -20,20" /><path
         id="path24"
         style="fill:#171717;fill-opacity:1;fill-rule:nonzero;stroke:none"
         d="m 1108.31,552.488 -76.21,28.992 c -3.26,2.657 -7.32,4.317 -11.81,4.493 L 547.34,765.883 12.5898,552.375 C 2.32813,548.277 -2.66406,536.641 1.42969,526.383 5.53125,516.117 17.1797,511.117 27.418,515.227 l 54.2656,21.664 V 20 c 0,-11.04687 8.957,-20 20.0004,-20 11.046,0 20,8.95313 20,20 V 552.859 L 547.691,722.953 999.527,551.078 V 20 c 0,-11.04687 8.943,-20 20.003,-20 11.03,0 20,8.95313 20,20 v 515.863 l 54.57,-20.754 c 2.33,-0.894 4.73,-1.316 7.1,-1.316 8.05,0 15.65,4.914 18.7,12.898 3.92,10.321 -1.26,21.875 -11.59,25.797" /></g></g></svg>