<?xml version="1.0" encoding="UTF-8" standalone="no"?>
<!-- Created with Inkscape (http://www.inkscape.org/) -->

<svg
   version="1.1"
   id="svg2"
   xml:space="preserve"
   width="175.25333"
   height="79.226669"
   viewBox="0 0 175.25333 79.226669"
   sodipodi:docname="espace vert.eps"
   xmlns:inkscape="http://www.inkscape.org/namespaces/inkscape"
   xmlns:sodipodi="http://sodipodi.sourceforge.net/DTD/sodipodi-0.dtd"
   xmlns="http://www.w3.org/2000/svg"
   xmlns:svg="http://www.w3.org/2000/svg"><defs
     id="defs6" /><sodipodi:namedview
     id="namedview4"
     pagecolor="#ffffff"
     bordercolor="#666666"
     borderopacity="1.0"
     inkscape:pageshadow="2"
     inkscape:pageopacity="0.0"
     inkscape:pagecheckerboard="0" /><g
     id="g8"
     inkscape:groupmode="layer"
     inkscape:label="ink_ext_XXXXXX"
     transform="matrix(1.3333333,0,0,-1.3333333,0,79.226667)"><g
       id="g10"
       transform="scale(0.1)"><path
         d="m 26.4648,124.02 c 13.2735,32.511 62.8204,131.988 164.8202,115.546 5.727,-0.894 12.223,-2.246 18.727,-3.586 18.929,-48.808 55.324,-69.917 71.64,-77.167 V 77.0313 c 0,-6.3985 5.2,-11.5977 11.606,-11.5977 6.394,0 11.601,5.1992 11.601,11.5977 v 84.3357 c 13.918,11.551 25.942,24.723 35.914,39.332 58.571,-18.211 118.766,-38.961 162.184,-54.367 V 78.1133 c 0,-6.3985 5.199,-11.5977 11.602,-11.5977 6.402,0 11.601,5.1992 11.601,11.5977 v 60.0197 c 25.25,-8.934 48.258,-17.32 67.442,-24.336 0.214,-0.094 0.414,-0.149 0.621,-0.238 0.054,-0.02 0.121,-0.039 0.175,-0.063 35.957,-13.344 58.739,-22.1601 58.786,-22.1757 1.363,-0.5312 2.765,-0.7851 4.179,-0.7851 4.645,0 9.039,2.8164 10.813,7.4179 2.304,5.9809 -0.653,12.6989 -6.645,15.0079 0,0 -13.656,5.289 -36.406,13.832 33.332,20.098 66.844,39.508 100.047,57.797 14.516,-14.012 28.918,-21.902 37.641,-25.762 V 77.0313 c 0,-6.3946 5.199,-11.5977 11.601,-11.5977 6.399,0 11.606,5.2031 11.606,11.5977 V 161.59 c 27.41,22.691 47.242,51.254 59.082,85.117 22.015,10.645 43.859,20.41 65.363,29.508 v -97.496 c 0,-32.598 25.984,-59.078 58.308,-60.262 V 77.0313 c 0,-6.3946 5.2,-11.5977 11.594,-11.5977 6.403,0 11.602,5.2031 11.602,11.5977 v 41.4177 c 32.391,1.098 58.441,27.614 58.441,60.27 v 139.586 c 4.1,0.359 8.06,0.574 11.84,0.574 150.78,0 212.34,-164.207 226.21,-208.535 C 593.586,-78.6953 102.176,94.4023 26.4727,124.02 Z M 242.984,411.176 c 27.543,76.394 42.825,117.996 51.27,140.379 28.691,-58.242 98.598,-223.176 31.883,-331.172 -5.989,-9.762 -13.344,-18.598 -21.278,-26.969 v 30.512 l 33.133,48.203 c 3.625,5.281 2.309,12.504 -2.969,16.125 -5.296,3.664 -12.535,2.293 -16.14,-2.977 l -14.024,-20.414 v 113.09 c 0,6.406 -5.207,11.602 -11.601,11.602 -6.406,0 -11.606,-5.196 -11.606,-11.602 v -71.265 l -9.039,9.039 c -4.531,4.539 -11.863,4.539 -16.386,0 -4.539,-4.539 -4.539,-11.875 0,-16.418 l 25.441,-25.426 V 184.91 c -15.719,9.094 -39.75,28.227 -52.164,64.996 -14.492,42.067 -9.969,96.324 13.48,161.258 z m 481.161,-0.012 c 27.765,76.797 42.988,118.129 51.351,140.297 25.477,-51.75 83.375,-187.418 49.531,-292.668 -8.105,-25.359 -21.203,-47.465 -38.996,-66.031 v 31.039 l 33.219,48.328 c 3.629,5.281 2.309,12.496 -2.973,16.125 -5.324,3.664 -12.531,2.281 -16.136,-2.984 l -14.11,-20.52 v 13.703 0.504 99.012 c 0,6.394 -5.195,11.594 -11.601,11.594 -6.403,0 -11.602,-5.2 -11.602,-11.594 v -71.184 l -8.945,8.949 c -4.543,4.543 -11.871,4.543 -16.399,0 -4.531,-4.531 -4.531,-11.879 0,-16.41 l 25.344,-25.344 v -89.148 c -7.805,4.539 -17.629,11.559 -26.969,21.895 -0.121,0.136 -0.296,0.187 -0.421,0.312 -27.75,30.598 -52.122,90.801 -11.293,204.125 z m 209.554,39.109 c 0,25.825 20.949,46.844 46.692,46.844 12.527,0 24.229,-4.879 33.099,-13.863 8.87,-8.727 13.74,-20.438 13.74,-32.981 v -271.57 c 0,-19.848 -15.63,-35.976 -35.23,-37.058 v 46.156 l 33.22,48.301 c 3.62,5.269 2.31,12.5 -2.98,16.125 -5.3,3.636 -12.5,2.293 -16.13,-2.985 L 992,228.73 v 149.254 c 0,6.395 -5.199,11.594 -11.602,11.594 -6.406,0 -11.601,-5.199 -11.601,-11.594 v -56.675 l -10.348,15.117 c -3.625,5.265 -10.808,6.652 -16.14,3.027 -5.274,-3.629 -6.641,-10.836 -3.012,-16.125 l 14.164,-20.695 c 0.098,-0.149 0.273,-0.203 0.375,-0.332 L 968.789,280.34 V 141.691 c -19.523,1.141 -35.09,17.239 -35.09,37.047 z M 499.922,223.734 c -1.582,3.567 -4.824,6.11 -8.676,6.762 -0.656,0.109 -1.301,0.168 -1.953,0.168 -3.176,0 -6.242,-1.312 -8.477,-3.672 -6.214,-6.656 -14.582,-10.304 -23.546,-10.304 -17.868,0 -32.407,14.539 -32.407,32.421 0,9.942 4.625,19.254 12.739,25.516 3.601,2.793 5.246,7.461 4.156,11.91 -0.59,2.434 -0.867,4.586 -0.867,6.586 0,8.121 3.449,15.652 9.714,21.188 2.954,2.605 4.395,6.562 3.782,10.468 -0.606,3.903 -3.168,7.231 -6.774,8.832 -13.808,6.098 -22.734,19.731 -22.734,34.743 0,19.562 14.793,35.726 34.422,37.597 3.297,0.309 6.289,2.012 8.246,4.672 1.969,2.668 2.687,6.043 2.008,9.27 -0.438,2.093 -0.66,4.054 -0.66,5.992 0,15.726 12.789,28.515 28.515,28.515 13.621,0 25.375,-9.707 27.961,-23.074 0.637,-3.312 2.699,-6.211 5.637,-7.883 2.933,-1.656 6.469,-1.988 9.66,-0.843 5.605,2.011 10.836,2.984 15.98,2.984 26.262,0 47.622,-21.363 47.622,-47.613 0,-14.598 -6.758,-28.242 -18.567,-37.434 -2.66,-2.07 -4.293,-5.222 -4.453,-8.597 -0.164,-3.383 1.156,-6.657 3.625,-8.981 6.52,-6.172 10.797,-13.977 12.328,-22.535 2.695,-14.945 -3.219,-30.113 -15.394,-39.645 -3.543,-2.769 -5.176,-7.336 -4.18,-11.714 l 0.453,-1.485 c 1.953,-10.832 -0.43,-21.773 -6.719,-30.816 -6.289,-9.039 -15.726,-15.098 -26.562,-17.032 -6.426,-1.156 -12.742,-0.66 -18.641,1.043 v 11.165 l 33.11,23.734 c 5.207,3.742 6.406,10.98 2.683,16.18 -3.726,5.191 -10.957,6.433 -16.183,2.675 l -19.61,-14.054 v 72.379 c 0,6.402 -5.207,11.601 -11.601,11.601 -6.403,0 -11.602,-5.199 -11.602,-11.601 v -30.266 l -17.16,18.434 c -4.371,4.718 -11.719,4.945 -16.391,0.589 -4.691,-4.371 -4.968,-11.703 -0.59,-16.39 l 34.149,-36.68 v -30.402 c -1.145,1.777 -2.188,3.617 -3.055,5.59 z M 1313.62,98.2305 c 0.27,0.75 0.64,1.4492 0.75,2.2615 0.1,0.664 -0.06,1.34 -0.08,2.016 -0.02,0.797 0.1,1.586 -0.1,2.398 -0.59,2.371 -60.23,237.184 -251.93,237.184 -3.83,0 -7.77,-0.168 -11.84,-0.473 v 108.664 c 0,18.809 -7.35,36.383 -20.55,49.387 -13.12,13.328 -30.702,20.676 -49.503,20.676 -38.543,0 -69.902,-31.43 -69.902,-70.063 V 301.457 c -18.735,-7.766 -37.797,-16.266 -57.027,-25.234 25.761,127.433 -51.731,276.855 -66.676,304.054 0.129,0.844 0.152,1.426 0.152,1.985 0,5.285 -3.578,9.918 -8.703,11.234 -4.746,1.211 -7.59,1.988 -13.625,-9.555 l -0.731,0.118 -0.574,-2.141 c -0.121,-0.375 -0.222,-0.758 -0.273,-1.117 -9.035,-18.758 -24.848,-62.504 -60.727,-161.738 -40.554,-112.559 -20.812,-178.965 7.11,-216.723 -37.278,-20.613 -74.934,-42.383 -112.215,-65.149 -20.399,7.461 -44.555,16.247 -71.047,25.547 v 14.465 c 3.711,-0.66 7.43,-1.324 11.266,-1.324 3.8,0 7.628,0.328 11.468,1.019 16.95,3.036 31.688,12.481 41.496,26.614 9,12.929 12.903,28.355 11.164,43.785 15.227,14.859 22.247,36.18 18.465,57.226 -1.695,9.465 -5.476,18.282 -11.066,26.012 11.863,12.965 18.496,29.715 18.496,47.434 0,43.14 -39.734,77.949 -83.145,69.636 -8.32,17.926 -26.464,30.004 -46.914,30.004 -28.179,0 -51.171,-22.66 -51.707,-50.718 -25.773,-7.422 -44.039,-30.871 -44.039,-58.528 0,-19.14 8.981,-36.886 23.742,-48.324 -5,-8.055 -7.714,-17.34 -7.714,-26.902 0,-1.633 0.097,-3.274 0.277,-4.938 -10.43,-10.406 -16.297,-24.301 -16.297,-39.086 0,-30.679 24.969,-55.633 55.625,-55.633 10.359,0 20.25,2.833 28.848,8.129 4.625,-6.187 10.492,-11.058 16.824,-15.144 v -15.52 c -41.57,14.676 -96.402,33.489 -150.305,50.348 69.606,134.816 -29.703,327.422 -47.035,358.969 0.133,0.843 0.152,1.441 0.152,1.992 0,6.406 -5.199,11.605 -11.601,11.605 -3.824,0 -6.188,0 -11.164,-9.808 l -0.262,0.047 -0.351,-1.227 C 274.18,566.207 259.063,524.348 221.113,419.055 199.074,357.996 192.797,305 202.289,261.172 c -2.484,0.441 -5.039,0.933 -7.387,1.293 C 54.4414,285.414 1.0625,122.684 0.546875,121.027 -1.24609,115.383 1.49219,109.309 6.91406,106.906 10.4844,105.34 255.488,-0.015625 653.918,0 c 186.711,0.0078125 407.152,23.1445 652.092,90.9609 0.77,0.2188 1.39,0.7032 2.07,1.0586 0.64,0.3203 1.32,0.5274 1.88,0.9493 0.6,0.4687 0.99,1.0859 1.49,1.6406 0.5,0.5664 1.07,1.0429 1.45,1.6875 0.37,0.5898 0.49,1.2773 0.72,1.9336 v 0"
         style="fill:#040606;fill-opacity:1;fill-rule:nonzero;stroke:none"
         id="path12" /></g></g></svg>
