<?xml version="1.0" encoding="UTF-8" standalone="no"?>
<!-- Created with Inkscape (http://www.inkscape.org/) -->

<svg
   version="1.1"
   id="svg2"
   xml:space="preserve"
   width="133.32001"
   height="160.26666"
   viewBox="0 0 133.32001 160.26666"
   sodipodi:docname="gardiennage.eps"
   xmlns:inkscape="http://www.inkscape.org/namespaces/inkscape"
   xmlns:sodipodi="http://sodipodi.sourceforge.net/DTD/sodipodi-0.dtd"
   xmlns="http://www.w3.org/2000/svg"
   xmlns:svg="http://www.w3.org/2000/svg"><defs
     id="defs6" /><sodipodi:namedview
     id="namedview4"
     pagecolor="#ffffff"
     bordercolor="#666666"
     borderopacity="1.0"
     inkscape:pageshadow="2"
     inkscape:pageopacity="0.0"
     inkscape:pagecheckerboard="0" /><g
     id="g8"
     inkscape:groupmode="layer"
     inkscape:label="ink_ext_XXXXXX"
     transform="matrix(1.3333333,0,0,-1.3333333,0,160.26667)"><g
       id="g10"
       transform="scale(0.1)"><path
         d="m 618.297,453.727 c -23.82,-29.215 -63.356,-64.45 -116.25,-66.457 -0.305,-0.008 -0.582,-0.075 -0.871,-0.106 -0.414,0.008 -0.801,0.125 -1.219,0.125 -0.406,0 -0.781,-0.113 -1.187,-0.117 -0.29,0.027 -0.571,0.09 -0.86,0.098 -52.894,2.007 -92.43,37.242 -116.254,66.457 -50.984,62.519 -96.836,138.863 -102.355,265.203 44.551,-29.758 113.437,-53.727 220.676,-53.727 107.234,0 176.128,23.965 220.679,53.719 C 715.137,592.555 669.281,516.23 618.297,453.727 Z M 230.191,819.246 419.754,803.902 c 19.676,-19.183 44.551,-34.972 76.816,-43.347 1.118,-0.285 2.25,-0.446 3.387,-0.446 1.137,0 2.27,0.161 3.387,0.446 32.269,8.371 57.14,24.16 76.82,43.34 l 189.602,15.351 C 756.32,781.273 703.125,692.211 499.977,692.211 c -203.207,0 -256.364,89.125 -269.786,127.035 z M 499.957,787.598 C 398.828,816.266 380.402,931.77 377.055,970.754 c 47.441,3.934 98.027,25.992 122.922,40.246 24.957,-14.234 75.644,-36.293 122.902,-40.227 C 619.531,931.77 601.105,816.266 499.957,787.598 Z m -281.848,74.793 c -0.144,1.886 -3.648,46.609 -35.988,74.039 -10.32,8.738 -16.219,23.05 -16.219,39.25 0,25.97 17.637,48.21 42.918,54.11 46.715,10.91 108.547,32.38 137.946,72.73 56.89,78.03 151.226,72.53 154.207,72.36 0.953,0.01 95.328,5.69 152.215,-72.36 29.417,-40.39 91.253,-61.82 137.945,-72.71 25.281,-5.92 42.922,-28.16 42.922,-54.13 0,-16.2 -5.903,-30.512 -16.242,-39.25 -31.993,-27.164 -35.762,-71.282 -35.477,-71.282 0,0 0,0 0,0.02 l -5.234,-18.246 -5.157,-0.422 -167.316,-13.551 c 44.855,65.989 45.973,149.438 45.984,150.68 0,3.59 -1.418,7.016 -3.953,9.551 -2.535,2.531 -5.961,3.972 -9.551,3.972 -49.609,0 -109.945,28.118 -129.832,40.958 -4.48,2.87 -10.218,2.89 -14.66,-0.02 -19.785,-12.82 -79.918,-40.938 -129.793,-40.938 -3.59,0 -7.015,-1.441 -9.551,-3.972 -2.535,-2.535 -3.953,-5.961 -3.953,-9.551 0.016,-1.242 1.125,-84.688 45.977,-150.672 l -56.707,4.594 -115.84,9.39 z M 932.035,285.84 652.031,453.203 c 51.496,66.996 94.489,151.18 95.422,286.879 43.797,40.602 52.145,83.594 53.242,91.203 l 8.075,29.16 c 0.019,0.344 2.98,35.438 26.5,55.387 16.378,13.887 25.789,35.703 25.789,59.848 0,38.56 -26.235,71.63 -63.782,80.41 -59.707,13.93 -103.136,36.05 -122.273,62.32 -66.863,91.7 -174.926,83.49 -173.852,83.37 -1.398,0.22 -109.355,8.35 -176.199,-83.37 -24.512,-33.65 -80.023,-52.47 -122.254,-62.34 -37.566,-8.74 -63.801,-41.81 -63.801,-80.39 0,-24.145 9.407,-45.961 25.766,-59.848 23.539,-19.949 26.5,-55.043 27.008,-58.125 l 7.617,-26.484 c 1.129,-7.774 9.551,-50.633 53.215,-91.125 0.93,-135.657 43.91,-219.864 95.402,-286.875 L 67.8789,285.84 C 26.0117,260.82 0,214.961 0,166.18 V 13.5195 C 0,6.05859 6.04297,0.0195313 13.5039,0.0195313 c 7.4609,0 13.5,6.0390587 13.5,13.4999687 V 166.18 c 0,39.332 20.9649,76.312 54.7227,96.504 l 283.4144,169.39 c 25.691,-30.023 54.554,-50.769 85.269,-61.89 -19.594,-15 -32.461,-38.383 -32.461,-64.903 0,-24.023 10.563,-46.672 28.649,-62.203 L 407.711,15.7891 c -1.258,-7.33988 3.668,-14.30863 11.027,-15.57035 0.774,-0.1367187 1.543,-0.1992187 2.293,-0.1992187 6.446,0 12.164,4.6406287 13.278,11.2304687 l 40.246,235.277 c 0.89,5.192 -1.321,10.399 -5.657,13.379 -15.003,10.321 -23.945,27.289 -23.945,45.375 0,29.668 23.719,53.582 53.137,54.625 0.828,-0.011 1.676,-0.023 3.023,-0.027 0.379,0 0.528,0.008 0.793,0.012 29.379,-1.09 53.055,-24.973 53.055,-54.61 0,-18.086 -8.941,-35.035 -23.926,-45.332 -4.336,-2.98 -6.547,-8.211 -5.652,-13.402 L 565.625,11.25 c 1.234,-7.35937 8.129,-12.37109 15.57,-11.03125 7.36,1.26172 12.285,8.23047 11.028,15.57035 L 553.34,243.102 c 18.062,15.507 28.625,38.156 28.625,62.179 0,26.52 -12.863,49.899 -32.457,64.899 30.719,11.113 59.59,31.851 85.293,61.883 L 918.191,262.684 C 951.965,242.492 972.93,205.512 972.93,166.18 V 13.5195 c 0,-7.46091 6.043,-13.4999687 13.504,-13.4999687 7.461,0 13.5,6.0390587 13.5,13.4999687 V 166.18 c 0,48.781 -26.032,94.64 -67.899,119.66"
         style="fill:#040606;fill-opacity:1;fill-rule:nonzero;stroke:none"
         id="path12" /></g></g></svg>
