<?xml version="1.0" encoding="UTF-8" standalone="no"?>
<!-- Created with Inkscape (http://www.inkscape.org/) -->

<svg
   version="1.1"
   id="svg2"
   xml:space="preserve"
   width="126.97158"
   height="126.96613"
   viewBox="0 0 126.97158 126.96613"
   sodipodi:docname="e439ae486e3a7ebcc20ace75bfb2a555.eps"
   xmlns:inkscape="http://www.inkscape.org/namespaces/inkscape"
   xmlns:sodipodi="http://sodipodi.sourceforge.net/DTD/sodipodi-0.dtd"
   xmlns="http://www.w3.org/2000/svg"
   xmlns:svg="http://www.w3.org/2000/svg"><defs
     id="defs6" /><sodipodi:namedview
     id="namedview4"
     pagecolor="#ffffff"
     bordercolor="#666666"
     borderopacity="1.0"
     inkscape:pageshadow="2"
     inkscape:pageopacity="0.0"
     inkscape:pagecheckerboard="0" /><g
     id="g8"
     inkscape:groupmode="layer"
     inkscape:label="ink_ext_XXXXXX"
     transform="matrix(1.3333333,0,0,-1.3333333,-1.3166666e-4,126.96613)"><g
       id="g10"
       transform="scale(0.1)"><path
         d="m 516.484,72.4727 -6.355,-6.3594 C 490.684,46.6797 459.07,46.6875 439.645,66.1016 L 66.1484,439.617 c -9.3632,9.367 -14.5195,21.883 -14.5195,35.242 0,13.364 5.1563,25.879 14.5156,35.231 l 6.3907,6.387 c 9.3711,9.363 21.8867,14.519 35.2458,14.519 13.364,0 25.875,-5.156 35.242,-14.527 L 516.477,142.973 C 535.91,123.539 535.91,91.9141 516.484,72.4727 Z M 341.52,50.8945 335.148,44.5195 C 325.781,35.1602 313.262,30 299.898,30 286.535,30 274.02,35.1563 264.656,44.5195 L 44.5586,264.645 c -19.4336,19.433 -19.4297,51.054 -0.0078,70.484 l 6.3828,6.371 c 9.7227,9.715 22.4844,14.574 35.25,14.574 12.7617,0 25.5274,-4.859 35.2384,-14.57 L 341.523,121.383 c 19.43,-19.434 19.426,-51.0549 -0.003,-70.4885 z m -230.918,4.3086 -55.3715,55.3559 50.4845,50.496 55.363,-55.371 z M 608.938,553.547 378.645,323.25 323.277,378.621 553.574,608.922 532.363,630.133 302.07,399.832 164.238,537.68 c -15.027,15.035 -35.082,23.32 -56.457,23.316 -21.3747,0 -41.4216,-8.277 -56.4529,-23.301 l -6.3906,-6.382 C 29.9102,516.285 21.6289,496.234 21.6289,474.859 c 0,-21.379 8.2813,-41.425 23.3086,-56.453 l 32.8203,-32.82 C 60.207,383.738 43.1523,376.141 29.7266,362.727 l -6.3789,-6.379 c -31.12895,-31.133 -31.12895,-81.789 0,-112.914 L 84.5,182.27 23.4063,121.156 c -2.8125,-2.812 -4.3907,-6.629 -4.3907,-10.605 0,-3.981 1.5821,-7.797 4.3946,-10.6096 L 99.9961,23.3828 c 2.9299,-2.9219 6.7699,-4.3906 10.6059,-4.3906 3.839,0 7.675,1.4687 10.605,4.3984 l 61.082,61.0821 61.156,-61.1641 C 258.469,8.28125 278.523,0 299.898,0 c 21.379,0 41.426,8.27734 56.461,23.3086 l 6.371,6.375 c 13.426,13.4219 21.028,30.4844 22.875,48.0391 l 32.829,-32.8321 c 15.562,-15.5586 36,-23.3359 56.445,-23.3359 20.445,0.0039 40.894,7.7812 56.461,23.3476 l 6.367,6.3633 c 31.113,31.1407 31.113,81.8004 -0.019,112.9184 l -137.833,137.851 230.293,230.301 -21.21,21.211"
         style="fill:#171717;fill-opacity:1;fill-rule:nonzero;stroke:none"
         id="path12" /><path
         d="m 886.152,442.133 -6.347,-6.34 c -19.434,-19.414 -51.075,-19.438 -70.508,0.008 L 435.82,809.258 c -19.425,19.43 -19.422,51.051 -0.007,70.472 l 6.386,6.379 c 9.364,9.36 21.875,14.516 35.239,14.516 0.003,0 0.003,0 0.003,0 13.368,0 25.879,-5.16 35.247,-14.523 L 886.164,512.621 c 19.422,-19.433 19.414,-51.055 -0.012,-70.488 z m -275.39,459.195 6.406,6.395 c 9.367,9.367 21.875,14.523 35.246,14.523 13.359,0 25.879,-5.16 35.242,-14.527 L 907.734,687.602 c 19.426,-19.438 19.426,-51.059 -0.019,-70.497 l -6.348,-6.359 c -19.422,-19.43 -51.054,-19.433 -70.496,0.008 L 610.773,830.855 c -19.433,19.426 -19.425,51.047 -0.011,70.473 z m 230.976,-4.273 55.371,-55.356 -50.519,-50.515 -55.367,55.379 z m 32.805,-330.387 c 17.555,1.848 34.613,9.449 48.047,22.867 l 6.348,6.363 c 31.132,31.122 31.132,81.778 0.007,112.915 l -61.144,61.16 61.137,61.121 c 2.812,2.812 4.394,6.625 4.394,10.605 0,3.981 -1.582,7.793 -4.394,10.61 l -76.594,76.57 c -5.86,5.848 -15.352,5.848 -21.211,0 l -61.121,-61.102 -61.145,61.153 c -15.027,15.035 -35.078,23.312 -56.453,23.316 0,0 0,0 -0.012,0 -21.367,0 -41.414,-8.281 -56.433,-23.301 l -6.406,-6.398 c -13.422,-13.422 -21.02,-30.481 -22.868,-48.031 l -32.797,32.8 c -15.019,15.028 -35.074,23.305 -56.449,23.309 -0.008,0 -0.008,0 -0.011,0 -21.372,0 -41.426,-8.277 -56.442,-23.293 l -6.391,-6.375 c -31.117,-31.137 -31.117,-81.793 0.004,-112.91 L 788.086,414.59 c 15.566,-15.563 36.016,-23.352 56.465,-23.352 20.449,0 40.898,7.782 56.465,23.336 l 6.347,6.348 c 31.125,31.129 31.133,81.781 0.012,112.91 l -32.832,32.836"
         style="fill:#171717;fill-opacity:1;fill-rule:nonzero;stroke:none"
         id="path14" /></g></g></svg>
