<?xml version="1.0" encoding="UTF-8" standalone="no"?>
<svg
   xmlns:dc="http://purl.org/dc/elements/1.1/"
   xmlns:cc="http://creativecommons.org/ns#"
   xmlns:rdf="http://www.w3.org/1999/02/22-rdf-syntax-ns#"
   xmlns:svg="http://www.w3.org/2000/svg"
   xmlns="http://www.w3.org/2000/svg"
   viewBox="0 0 73.453331 111.22667"
   height="111.22667"
   width="73.453331"
   xml:space="preserve"
   id="svg2"
   version="1.1"><metadata
     id="metadata8"><rdf:RDF><cc:Work
         rdf:about=""><dc:format>image/svg+xml</dc:format><dc:type
           rdf:resource="http://purl.org/dc/dcmitype/StillImage" /></cc:Work></rdf:RDF></metadata><defs
     id="defs6" /><g
     transform="matrix(1.3333333,0,0,-1.3333333,0,111.22667)"
     id="g10"><g
       transform="scale(0.1)"
       id="g12"><path
         id="path14"
         style="fill:#171717;fill-opacity:1;fill-rule:nonzero;stroke:none"
         d="m 524.066,57.7266 c 0,-17.0235 -13.847,-30.8711 -30.871,-30.8711 H 57.7266 c -17.0235,0 -30.875,13.8476 -30.875,30.8711 V 776.434 c 0,17.019 13.8515,30.871 30.875,30.871 H 493.195 c 17.024,0 30.871,-13.852 30.871,-30.871 z M 493.195,834.156 H 57.7266 C 25.8945,834.156 0,808.262 0,776.434 V 57.7266 C 0,25.8945 25.8945,0 57.7266,0 H 493.195 c 31.828,0 57.723,25.8945 57.723,57.7266 V 776.434 c 0,31.828 -25.895,57.722 -57.723,57.722" /><path
         id="path16"
         style="fill:#171717;fill-opacity:1;fill-rule:nonzero;stroke:none"
         d="m 334.379,222.871 v 16.563 c 0,16.269 -6.59,31.004 -17.254,41.668 -8.266,8.261 -18.98,14.066 -30.953,16.265 v 3.461 c 0,5.914 -4.797,10.711 -10.711,10.711 -5.918,0 -10.715,-4.797 -10.715,-10.711 v -3.461 c -11.973,-2.199 -22.687,-8.004 -30.949,-16.265 -10.664,-10.664 -17.258,-25.399 -17.258,-41.668 v -16.563 c -0.289,-20.004 -8.082,-37.523 -12.707,-51.117 -1.562,-4.602 1.852,-9.367 6.707,-9.367 h 64.922 64.918 c 4.855,0 8.273,4.765 6.707,9.367 -4.625,13.594 -12.418,31.113 -12.707,51.117" /><path
         id="path18"
         style="fill:#171717;fill-opacity:1;fill-rule:nonzero;stroke:none"
         d="m 275.461,138.488 c 10.012,0 18.129,8.117 18.129,18.129 h -36.262 c 0,-10.012 8.117,-18.129 18.133,-18.129" /><path
         id="path20"
         style="fill:#171717;fill-opacity:1;fill-rule:nonzero;stroke:none"
         d="m 275.461,100.98 c -68.395,0 -124.035,55.641 -124.035,124.036 0,68.39 55.64,124.031 124.035,124.031 68.391,0 124.031,-55.641 124.031,-124.031 0,-68.395 -55.64,-124.036 -124.031,-124.036 z m 0,266.969 c -78.816,0 -142.938,-64.121 -142.938,-142.933 0,-78.817 64.122,-142.9379 142.938,-142.9379 78.812,0 142.934,64.1209 142.934,142.9379 0,78.812 -64.122,142.933 -142.934,142.933" /><path
         id="path22"
         style="fill:#171717;fill-opacity:1;fill-rule:nonzero;stroke:none"
         d="m 275.461,483.434 c -72.824,0 -132.066,59.246 -132.066,132.066 0,72.82 59.242,132.066 132.066,132.066 72.82,0 132.066,-59.246 132.066,-132.066 0,-72.82 -59.246,-132.066 -132.066,-132.066 z m 0,285.871 c -84.809,0 -153.805,-68.996 -153.805,-153.805 0,-84.809 68.996,-153.805 153.805,-153.805 84.809,0 153.805,68.996 153.805,153.805 0,84.809 -68.996,153.805 -153.805,153.805" /><path
         id="path24"
         style="fill:#171717;fill-opacity:1;fill-rule:nonzero;stroke:none"
         d="m 275.461,662.449 c -25.93,0 -46.949,-21.019 -46.949,-46.949 0,-25.93 21.019,-46.949 46.949,-46.949 25.93,0 46.949,21.019 46.949,46.949 0,25.93 -21.019,46.949 -46.949,46.949" /><path
         id="path26"
         style="fill:#171717;fill-opacity:1;fill-rule:nonzero;stroke:none"
         d="m 275.461,722.891 c -4.945,0 -8.953,-4.008 -8.953,-8.953 0,-4.942 4.008,-8.95 8.953,-8.95 49.344,0 89.488,-40.144 89.488,-89.488 0,-4.945 4.008,-8.953 8.949,-8.953 4.946,0 8.954,4.008 8.954,8.953 0,59.215 -48.176,107.391 -107.391,107.391" /><path
         id="path28"
         style="fill:#171717;fill-opacity:1;fill-rule:nonzero;stroke:none"
         d="m 69.5742,790.945 c -11.4414,0 -20.7148,-9.273 -20.7148,-20.715 0,-11.437 9.2734,-20.71 20.7148,-20.71 11.4375,0 20.711,9.273 20.711,20.71 0,11.442 -9.2735,20.715 -20.711,20.715" /><path
         id="path30"
         style="fill:#171717;fill-opacity:1;fill-rule:nonzero;stroke:none"
         d="m 481.344,790.945 c -11.438,0 -20.711,-9.273 -20.711,-20.715 0,-11.437 9.273,-20.71 20.711,-20.71 11.441,0 20.715,9.273 20.715,20.71 0,11.442 -9.274,20.715 -20.715,20.715" /><path
         id="path32"
         style="fill:#171717;fill-opacity:1;fill-rule:nonzero;stroke:none"
         d="m 69.5742,82.0781 c -11.4414,0 -20.7148,-9.2734 -20.7148,-20.7109 0,-11.4414 9.2734,-20.7149 20.7148,-20.7149 11.4375,0 20.711,9.2735 20.711,20.7149 0,11.4375 -9.2735,20.7109 -20.711,20.7109" /><path
         id="path34"
         style="fill:#171717;fill-opacity:1;fill-rule:nonzero;stroke:none"
         d="m 481.344,82.0781 c -11.438,0 -20.711,-9.2734 -20.711,-20.7109 0,-11.4414 9.273,-20.7149 20.711,-20.7149 11.441,0 20.715,9.2735 20.715,20.7149 0,11.4375 -9.274,20.7109 -20.715,20.7109" /></g></g></svg>