<?xml version="1.0" encoding="UTF-8" standalone="no"?>
<!-- Created with Inkscape (http://www.inkscape.org/) -->

<svg
   version="1.1"
   id="svg2"
   xml:space="preserve"
   width="160.06667"
   height="137.96001"
   viewBox="0 0 160.06667 137.96001"
   sodipodi:docname="biblio.eps"
   xmlns:inkscape="http://www.inkscape.org/namespaces/inkscape"
   xmlns:sodipodi="http://sodipodi.sourceforge.net/DTD/sodipodi-0.dtd"
   xmlns="http://www.w3.org/2000/svg"
   xmlns:svg="http://www.w3.org/2000/svg"><defs
     id="defs6" /><sodipodi:namedview
     id="namedview4"
     pagecolor="#ffffff"
     bordercolor="#666666"
     borderopacity="1.0"
     inkscape:pageshadow="2"
     inkscape:pageopacity="0.0"
     inkscape:pagecheckerboard="0" /><g
     id="g8"
     inkscape:groupmode="layer"
     inkscape:label="ink_ext_XXXXXX"
     transform="matrix(1.3333333,0,0,-1.3333333,0,137.96)"><g
       id="g10"
       transform="scale(0.1)"><path
         d="m 1162.62,85.0352 c -72.47,20.6948 -147.29,31.1758 -222.768,31.1758 -91.551,0 -181.09,-15.195 -267.192,-45.2501 35.301,28.6993 79.18,52.7151 128.918,70.1051 85.477,29.883 182.551,37.625 273.342,21.797 l 22.19,-3.871 v 589 c 22.01,-4.582 43.94,-10.144 65.51,-16.629 z m -1124.745,0 V 731.363 c 21.5703,6.485 43.4961,12.047 65.512,16.629 v -589 l 22.187,3.871 c 90.789,15.828 187.86,8.09 273.34,-21.797 49.742,-17.39 93.617,-41.4058 128.918,-70.1051 C 441.734,101.016 352.191,116.211 260.641,116.211 185.16,116.211 110.348,105.73 37.875,85.0352 Z M 141.262,862.137 c 32.945,4.754 66.441,6.484 99.976,5.199 V 280.867 l 18.071,-0.828 c 135.445,-6.191 230.437,-64.109 288.195,-176.363 -37.984,30 -84.211,55.004 -136.094,73.144 -84.531,29.551 -179.617,38.879 -270.148,26.77 v 567.34 z m 137.847,134.187 c 177.321,-9.89 252.289,-160.023 302.2,-262.929 V 717.703 706.727 120.652 c -23.016,44.856 -51.543,82.192 -85.332,111.551 -56.559,49.137 -129.446,77.535 -216.868,84.535 z m 522.469,-158.48 c 80.574,28.168 171.453,36.66 257.652,24.289 V 770.93 203.59 C 968.695,215.695 873.613,206.371 789.078,176.82 720.613,152.887 661.988,116.992 619.184,73.4375 v 633.2895 5.007 c 38.445,53.68 102.953,98.34 182.394,126.11 z m 385.752,-74.492 c -29.55,9.457 -59.83,17.253 -90.22,23.273 v 107.59 l -15.69,2.734 C 984.379,913.867 880.555,905.574 789.078,873.598 715.66,847.93 653.555,808.52 610.141,760.645 580.234,821.477 546.27,883.863 497.082,934.73 c -30.09,31.122 -63.644,55.235 -99.73,71.68 -41.227,18.78 -87.286,28.3 -136.914,28.3 -0.09,0 -0.188,0 -0.278,0 l -18.922,-0.01 V 905.23 c -41.043,1.481 -82.047,-1.285 -122.164,-8.281 l -15.687,-2.734 V 786.625 C 72.9883,780.605 42.707,772.809 13.1641,763.352 L 0,759.137 V 33.5703 l 24.7109,7.9102 c 76.3871,24.457 155.7621,36.8593 235.9301,36.8593 114.843,0 226.386,-25.082 331.543,-74.55074 L 600.246,0 l 8.059,3.78906 c 105.16,49.46874 216.707,74.55074 331.547,74.55074 80.168,0 159.538,-12.4023 235.928,-36.8593 l 24.71,-7.9102 V 759.137 l -13.16,4.215"
         style="fill:#040606;fill-opacity:1;fill-rule:nonzero;stroke:none"
         id="path12" /></g></g></svg>
