<svg id="Calque_1" data-name="Calque 1" xmlns="http://www.w3.org/2000/svg" viewBox="0 0 200 200"><defs><style>.cls-1{fill:gray;}</style></defs><path class="cls-1" d="M95.65,23.83A60.82,60.82,0,0,0,34.9,84.57,60,60,0,0,0,48,122.22c11.1,14,43.37,47.2,44.73,48.61l2.92,3,2.92-3c1.37-1.41,33.64-34.63,44.74-48.62A60,60,0,0,0,156.4,84.57,60.81,60.81,0,0,0,95.65,23.83Zm41.28,93.32c-8.93,11.26-32.92,36.32-41.28,45-8.36-8.66-32.34-33.72-41.27-45A51.91,51.91,0,0,1,43,84.57a52.61,52.61,0,0,1,105.22,0A51.92,51.92,0,0,1,136.93,117.15Z"/><path class="cls-1" d="M95.65,47.94a36,36,0,1,0,36,36A36,36,0,0,0,95.65,47.94Zm0,63.78A27.82,27.82,0,1,1,123.47,83.9,27.85,27.85,0,0,1,95.65,111.72Z"/></svg>