<?xml version="1.0" encoding="iso-8859-1"?>
<!-- Uploaded to: SVG Repo, www.svgrepo.com, Generator: SVG Repo Mixer Tools -->
<!DOCTYPE svg PUBLIC "-//W3C//DTD SVG 1.1//EN" "http://www.w3.org/Graphics/SVG/1.1/DTD/svg11.dtd">
<svg fill="#000000" height="800px" width="800px" version="1.1" id="Capa_1" xmlns="http://www.w3.org/2000/svg" xmlns:xlink="http://www.w3.org/1999/xlink" 
	 viewBox="0 0 460 460" xml:space="preserve">
<g>
	<path d="M454,117.5H258.68v-32c0-3.314-2.687-6-6-6H6c-3.313,0-6,2.686-6,6v151c0,3.314,2.687,6,6,6h28.292v132
		c0,3.314,2.687,6,6,6h117.254h180.306h28.761c3.313,0,6-2.686,6-6v-137H454c3.313,0,6-2.686,6-6v-108
		C460,120.186,457.314,117.5,454,117.5z M34.292,198.5v32H12v-139h234.68v26h-24.976c-3.313,0-6,2.686-6,6v69H40.292
		C36.978,192.5,34.292,195.186,34.292,198.5z M292.03,259.5v109H259.34v-109H292.03z M247.34,368.5h-32.689v-109h32.689V368.5z
		 M202.651,368.5h-32.689v-109h32.689V368.5z M157.962,319.5h-32.689v-60h32.689V319.5z M113.272,319.5H80.583v-60h32.689V319.5z
		 M68.583,319.5H46.292v-60h22.292V319.5z M46.292,368.5v-37h111.67v37h-0.416H46.292z M304.03,368.5v-109h27.822v109H304.03z
		 M360.613,368.5h-16.761v-115c0-3.313-2.687-6-6-6H46.292v-43h169.413v27c0,3.314,2.687,6,6,6h138.909V368.5z M227.704,225.5v-96
		H448v10H246.04c-3.313,0-6,2.687-6,6v64c0,3.313,2.687,6,6,6H448v10H227.704z M252.04,203.5v-52h37.778v52H252.04z M301.818,151.5
		h44.414v52h-44.414V151.5z M358.232,151.5h44.415v52h-44.415V151.5z M414.647,151.5H448v52h-33.354V151.5z"/>
	<path d="M206,177.5v-70c0-3.313-2.687-6-6-6H26.889c-3.313,0-6,2.687-6,6v70c0,3.313,2.687,6,6,6H200
		C203.313,183.5,206,180.814,206,177.5z M137.22,113.5v58H89.67v-58H137.22z M32.889,113.5H77.67v58H32.889V113.5z M194,171.5
		h-44.78v-58H194V171.5z"/>
</g>
</svg>