<?xml version="1.0" encoding="iso-8859-1"?>
<!-- Generator: Adobe Illustrator 19.0.0, SVG Export Plug-In . SVG Version: 6.00 Build 0)  -->
<svg version="1.1" id="Layer_1" xmlns="http://www.w3.org/2000/svg" xmlns:xlink="http://www.w3.org/1999/xlink" x="0px" y="0px"
	 viewBox="0 0 512 512" style="enable-background:new 0 0 512 512;" xml:space="preserve">
<g>
	<g>
		<path d="M439.076,0H72.924C32.714,0,0,32.714,0,72.924v366.151C0,479.286,32.714,512,72.924,512h366.151
			c40.21,0,72.924-32.714,72.924-72.924V72.924C512,32.714,479.286,0,439.076,0z M491.602,439.076
			c0,28.963-23.563,52.526-52.526,52.526H72.924c-28.963,0-52.526-23.563-52.526-52.526V72.924
			c0-28.963,23.563-52.526,52.526-52.526h366.151c28.963,0,52.526,23.563,52.526,52.526V439.076z"/>
	</g>
</g>
<g>
	<g>
		<path d="M265.075,92.677h-83.469c-7.712,0.454-12.702,4.99-12.702,10.888h-0.001v308.927c0,7.712,7.259,11.794,14.97,11.794
			c7.259,0,14.97-4.082,14.97-11.794V290.009h65.325c53.076,0,94.357-26.311,94.357-96.625v-4.536
			C358.525,118.535,317.698,92.677,265.075,92.677z M328.586,194.746c0,47.178-24.043,69.407-64.416,69.407h-65.325V120.349h65.325
			c40.374,0,64.416,21.774,64.416,68.953V194.746z"/>
	</g>
</g>
<g>
	<g>
		<path d="M44.877,308.016c-5.632,0-10.199,4.567-10.199,10.199v4.08c0,5.632,4.567,10.199,10.199,10.199
			c5.632,0,10.199-4.567,10.199-10.199v-4.08C55.076,312.583,50.508,308.016,44.877,308.016z"/>
	</g>
</g>
<g>
	<g>
		<path d="M44.877,348.813c-5.632,0-10.199,4.567-10.199,10.199v82.614c0,5.632,4.567,10.199,10.199,10.199
			c5.632,0,10.199-4.567,10.199-10.199v-82.614C55.076,353.38,50.508,348.813,44.877,348.813z"/>
	</g>
</g>
<g>
</g>
<g>
</g>
<g>
</g>
<g>
</g>
<g>
</g>
<g>
</g>
<g>
</g>
<g>
</g>
<g>
</g>
<g>
</g>
<g>
</g>
<g>
</g>
<g>
</g>
<g>
</g>
<g>
</g>
</svg>
