<?xml version="1.0" encoding="UTF-8" standalone="no"?>
<!-- Created with Inkscape (http://www.inkscape.org/) -->

<svg
   version="1.1"
   id="svg2"
   xml:space="preserve"
   width="182.45332"
   height="131.46667"
   viewBox="0 0 182.45332 131.46667"
   sodipodi:docname="aire de jeux.eps"
   xmlns:inkscape="http://www.inkscape.org/namespaces/inkscape"
   xmlns:sodipodi="http://sodipodi.sourceforge.net/DTD/sodipodi-0.dtd"
   xmlns="http://www.w3.org/2000/svg"
   xmlns:svg="http://www.w3.org/2000/svg"><defs
     id="defs6" /><sodipodi:namedview
     id="namedview4"
     pagecolor="#ffffff"
     bordercolor="#666666"
     borderopacity="1.0"
     inkscape:pageshadow="2"
     inkscape:pageopacity="0.0"
     inkscape:pagecheckerboard="0" /><g
     id="g8"
     inkscape:groupmode="layer"
     inkscape:label="ink_ext_XXXXXX"
     transform="matrix(1.3333333,0,0,-1.3333333,0,131.46667)"><g
       id="g10"
       transform="scale(0.1)"><path
         d="m 580.504,340.664 c -89.555,0 -162.406,-72.851 -162.406,-162.398 V 74.5508 c 0,-8.2852 6.715,-15 15,-15 8.289,0 15,6.7148 15,15 V 178.266 c 0,73.004 59.394,132.398 132.406,132.398 73,0 132.391,-59.394 132.391,-132.398 V 74.5508 c 0,-8.2852 6.718,-15 15,-15 8.281,0 15,6.7148 15,15 V 178.266 c 0,89.547 -72.848,162.398 -162.391,162.398"
         style="fill:#171717;fill-opacity:1;fill-rule:nonzero;stroke:none"
         id="path12" /><path
         d="m 1338.36,77.0469 c 0,-17.9492 -14.6,-32.5508 -32.55,-32.5508 -17.95,0 -32.54,14.6016 -32.54,32.5508 v 66.2151 c 0,17.949 14.59,32.547 32.54,32.547 17.95,0 32.55,-14.598 32.55,-32.547 z m -284.16,76.6441 -17.11,33.825 116.17,59.804 2.1,-4.168 c 19.21,-37.949 55.8,-62.683 97.47,-66.812 -6.02,-9.61 -9.56,-20.926 -9.56,-33.078 V 77.0469 c 0,-11.9727 3.44,-23.1289 9.29,-32.6485 h -20.59 c -75.55,0 -143.67,41.8789 -177.77,109.2926 z m -93.403,184.657 116.163,59.804 62.76,-124.062 -116.17,-59.805 z M 357.957,40.0664 V 400.672 H 803.043 V 40.0664 Z M 63.8516,91.6172 100.102,176.93 H 218.863 L 182.613,91.6172 Z M 231.609,206.93 H 112.852 l 36.246,85.304 H 267.859 Z M 186.84,381.055 c 5.078,11.953 16.75,19.672 29.73,19.672 h 97.387 L 280.605,322.234 H 161.848 Z m 454.41,178.672 h 72.141 V 430.672 H 641.25 Z m -94.195,0 H 611.25 V 430.672 h -64.195 z m -99.297,0 h 69.297 V 430.672 h -69.297 z m 265.633,30 h -75.68 c -2.75,3.293 -6.836,5.429 -11.461,5.429 -4.629,0 -8.715,-2.136 -11.465,-5.429 h -71.269 c -2.75,3.293 -6.836,5.429 -11.461,5.429 -4.629,0 -8.711,-2.136 -11.465,-5.429 h -72.832 v 149.617 c 74.183,63.176 182.344,64.64 258.285,3.14 l 7.348,-5.953 z M 578.695,952.309 803.305,786.293 c -0.153,-0.855 -0.262,-1.727 -0.262,-2.625 V 430.672 h -59.652 v 313.016 c 0,4.527 -2.039,8.808 -5.555,11.652 l -12.91,10.457 c -88.02,71.297 -213.785,68.91 -299.02,-5.684 l -3.015,-2.636 c -3.262,-2.848 -5.133,-6.965 -5.133,-11.297 V 430.672 h -59.801 v 352.996 c 0,0.895 -0.113,1.762 -0.262,2.613 z M 1312.62,205.422 c -1.21,0.32 -2.47,0.543 -3.79,0.543 -0.03,0 -0.07,0 -0.11,0 l -43.22,-0.305 c -0.12,0 -0.23,0 -0.35,0 -35.28,0 -67.07,19.531 -83.01,51.039 l -2.2,4.356 19.46,10.019 c 7.36,3.789 10.26,12.836 6.47,20.199 -3.8,7.368 -12.83,10.254 -20.2,6.469 l -19.27,-9.918 -62.75,124.063 22.59,11.633 c 7.37,3.789 10.27,12.835 6.48,20.199 -3.8,7.371 -12.83,10.25 -20.21,6.472 l -22.4,-11.539 -15.58,30.786 c -39.24,77.566 -117.612,125.746 -204.526,125.746 h -1.652 c -8.282,0 -15,-6.711 -15,-15 0,-8.286 6.718,-15 15,-15 h 1.652 c 75.539,0 143.656,-41.879 177.756,-109.289 l 15.66,-30.977 -116.162,-59.805 -1.231,2.426 c -17.136,33.895 -38.211,66.992 -90.039,66.992 h -22.945 v 329.785 l 53.98,-39.902 c 2.688,-1.984 5.813,-2.941 8.907,-2.941 4.59,0 9.133,2.105 12.074,6.086 4.918,6.66 3.512,16.054 -3.149,20.976 L 587.539,983.074 c -5.332,3.946 -12.617,3.926 -17.926,-0.066 L 257.418,748.465 c -6.629,-4.973 -7.961,-14.379 -2.984,-21 4.972,-6.629 14.379,-7.957 21,-2.985 l 52.523,39.461 V 430.727 H 216.57 c -25.039,0 -47.543,-14.891 -57.34,-37.938 L 1.19922,20.8672 C -2.04297,13.2461 1.51172,4.4375 9.14063,1.19922 11.0547,0.386719 13.0391,0 15,0 20.832,0 26.3789,3.42578 28.8086,9.14063 L 51.1055,61.6172 H 169.867 l -17.316,-40.75 C 149.309,13.2461 152.863,4.4375 160.492,1.19922 162.406,0.386719 164.395,0 166.352,0 c 5.836,0 11.382,3.42578 13.808,9.14063 l 25.977,61.13667 c 0.156,0.3321 0.297,0.6641 0.429,1.0118 L 255.125,185.57 c 0.164,0.344 0.313,0.692 0.445,1.051 l 48.535,114.219 c 0.176,0.371 0.333,0.742 0.477,1.129 l 23.375,55.008 V 40.0664 h -40.996 c -8.285,0 -15,-6.7109 -15,-15 0,-8.2851 6.715,-15 15,-15 h 584.84 c 8.281,0 15,6.7149 15,15 0,8.2891 -6.719,15 -15,15 H 833.043 V 404.531 h 22.945 c 32.071,0 45.957,-16.293 63.266,-50.531 l 1.324,-2.621 -25.035,-12.887 c -7.367,-3.789 -10.266,-12.84 -6.477,-20.199 2.664,-5.172 7.911,-8.141 13.352,-8.141 2.312,0 4.656,0.536 6.852,1.668 l 24.847,12.789 62.754,-124.058 -28.176,-14.504 c -7.363,-3.793 -10.265,-12.84 -6.476,-20.203 2.668,-5.172 7.91,-8.141 13.351,-8.141 2.313,0 4.657,0.539 6.856,1.672 l 27.984,14.406 17.02,-33.636 C 1066.67,62.582 1145.04,14.3984 1231.97,14.3984 h 76.64 c 1.16,0 2.27,0.1602 3.36,0.4102 31.61,3.1016 56.39,29.8281 56.39,62.2383 v 66.2151 c 0,32.183 -24.44,58.754 -55.74,62.16"
         style="fill:#171717;fill-opacity:1;fill-rule:nonzero;stroke:none"
         id="path14" /></g></g></svg>
