<?xml version="1.0" encoding="UTF-8" standalone="no"?>
<svg
   xmlns:dc="http://purl.org/dc/elements/1.1/"
   xmlns:cc="http://creativecommons.org/ns#"
   xmlns:rdf="http://www.w3.org/1999/02/22-rdf-syntax-ns#"
   xmlns:svg="http://www.w3.org/2000/svg"
   xmlns="http://www.w3.org/2000/svg"
   viewBox="0 0 104.58667 104.58667"
   height="104.58667"
   width="104.58667"
   xml:space="preserve"
   id="svg2"
   version="1.1"><metadata
     id="metadata8"><rdf:RDF><cc:Work
         rdf:about=""><dc:format>image/svg+xml</dc:format><dc:type
           rdf:resource="http://purl.org/dc/dcmitype/StillImage" /></cc:Work></rdf:RDF></metadata><defs
     id="defs6" /><g
     transform="matrix(1.3333333,0,0,-1.3333333,0,104.58667)"
     id="g10"><g
       transform="scale(0.1)"
       id="g12"><path
         id="path14"
         style="fill:#040606;fill-opacity:1;fill-rule:nonzero;stroke:none"
         d="m 259.09,474.551 v -21.086 c 0,-9.797 7.941,-17.738 17.738,-17.738 9.793,0 17.738,7.941 17.738,17.738 v 21.086 c 37.2,8.148 65.149,41.312 65.149,80.926 0,4.238 -1.52,8.332 -4.277,11.546 L 249.758,690.23 c 2.687,12.473 13.805,21.844 27.07,21.844 15.266,0 27.684,-12.422 27.684,-27.687 0,-9.797 7.941,-17.739 17.738,-17.739 9.797,0 17.738,7.942 17.738,17.739 0,28.668 -19.211,52.894 -45.422,60.586 v 21.703 c 0,9.797 -7.945,17.738 -17.738,17.738 -9.797,0 -17.738,-7.941 -17.738,-17.738 v -21.703 c -26.215,-7.692 -45.43,-31.918 -45.43,-60.586 0,-4.239 1.52,-8.332 4.278,-11.547 L 323.844,549.367 c -3.004,-23.265 -22.946,-41.301 -47.016,-41.301 -26.144,0 -47.414,21.27 -47.414,47.411 0,9.796 -7.941,17.738 -17.734,17.738 -9.797,0 -17.742,-7.942 -17.742,-17.738 0,-39.614 27.949,-72.778 65.152,-80.926" /><path
         id="path16"
         style="fill:#040606;fill-opacity:1;fill-rule:nonzero;stroke:none"
         d="m 436.09,690.879 h 136.648 c 9.793,0 17.739,7.937 17.739,17.734 0,9.797 -7.946,17.739 -17.739,17.739 H 436.09 c -9.797,0 -17.738,-7.942 -17.738,-17.739 0,-9.797 7.941,-17.734 17.738,-17.734" /><path
         id="path18"
         style="fill:#040606;fill-opacity:1;fill-rule:nonzero;stroke:none"
         d="m 436.09,592.332 h 136.648 c 9.793,0 17.739,7.941 17.739,17.738 0,9.797 -7.946,17.739 -17.739,17.739 H 436.09 c -9.797,0 -17.738,-7.942 -17.738,-17.739 0,-9.797 7.941,-17.738 17.738,-17.738" /><path
         id="path20"
         style="fill:#040606;fill-opacity:1;fill-rule:nonzero;stroke:none"
         d="m 436.09,493.789 h 136.648 c 9.793,0 17.739,7.941 17.739,17.738 0,9.797 -7.946,17.739 -17.739,17.739 H 436.09 c -9.797,0 -17.738,-7.942 -17.738,-17.739 0,-9.797 7.941,-17.738 17.738,-17.738" /><path
         id="path22"
         style="fill:#040606;fill-opacity:1;fill-rule:nonzero;stroke:none"
         d="M 409.945,43.1602 V 110.129 L 748.938,234.793 V 167.824 Z M 35.4766,234.793 374.469,110.129 V 43.1602 L 35.4766,167.824 Z M 392.207,379.023 715.281,260.215 392.207,141.402 69.1289,260.215 Z M 772.797,276.863 398.328,414.57 c -3.953,1.457 -8.293,1.457 -12.242,0 L 11.6172,276.863 C 4.63672,274.297 0,267.652 0,260.215 V 155.449 c 0,-7.437 4.63672,-14.082 11.6172,-16.648 L 386.086,1.08984 C 388.059,0.363281 390.133,0 392.207,0 c 2.07,0 4.145,0.363281 6.121,1.08984 L 772.797,138.801 c 6.98,2.566 11.617,9.211 11.617,16.648 v 104.766 c 0,7.437 -4.637,14.082 -11.617,16.648" /></g></g></svg>