<?xml version="1.0" encoding="UTF-8" standalone="no"?>
<svg
   xmlns:dc="http://purl.org/dc/elements/1.1/"
   xmlns:cc="http://creativecommons.org/ns#"
   xmlns:rdf="http://www.w3.org/1999/02/22-rdf-syntax-ns#"
   xmlns:svg="http://www.w3.org/2000/svg"
   xmlns="http://www.w3.org/2000/svg"
   viewBox="0 0 108.69333 137.58667"
   height="137.58667"
   width="108.69333"
   xml:space="preserve"
   id="svg2"
   version="1.1"><metadata
     id="metadata8"><rdf:RDF><cc:Work
         rdf:about=""><dc:format>image/svg+xml</dc:format><dc:type
           rdf:resource="http://purl.org/dc/dcmitype/StillImage" /></cc:Work></rdf:RDF></metadata><defs
     id="defs6" /><g
     transform="matrix(1.3333333,0,0,-1.3333333,0,137.58667)"
     id="g10"><g
       transform="scale(0.1)"
       id="g12"><path
         id="path14"
         style="fill:#171717;fill-opacity:1;fill-rule:nonzero;stroke:none"
         d="m 802.832,24.6914 c -20.824,0 -31.199,13.0508 -46.43,34.332 -14.976,20.9454 -31.937,44.6876 -66.547,44.6876 -34.621,0 -51.593,-23.7383 -66.574,-44.6876 -15.215,-21.2968 -25.617,-34.332 -46.453,-34.332 -20.816,0 -31.191,13.0508 -46.402,34.332 -14.961,20.9454 -31.914,44.6876 -66.508,44.6876 -34.602,0 -51.559,-23.7383 -66.52,-44.6876 -15.207,-21.2968 -25.589,-34.332 -46.402,-34.332 -20.828,0 -31.195,13.0508 -46.43,34.3477 -14.957,20.9336 -31.91,44.6719 -66.503,44.6719 -34.579,0 -51.52,-23.7383 -66.477,-44.6719 -15.207,-21.3086 -25.578,-34.3477 -46.402,-34.3477 -20.801,0 -31.1645,13.0508 -46.3832,34.332 C 63.8906,79.9727 46.9375,103.727 12.3516,103.727 5.51953,103.727 0,98.207 0,91.3711 0,84.543 5.51953,79.0195 12.3516,79.0195 33.1758,79.0195 43.543,65.9688 58.7539,44.6719 73.7109,23.7305 90.6602,0 125.234,0 c 34.582,0 51.539,23.75 66.5,44.6875 15.207,21.2969 25.582,34.332 46.383,34.332 20.813,0 31.184,-13.0507 46.403,-34.332 C 299.473,23.7383 316.445,0 351.039,0 c 34.582,0 51.535,23.7383 66.5,44.6719 15.219,21.3008 25.59,34.3476 46.434,34.3476 20.812,0 31.183,-13.0507 46.406,-34.332 C 525.328,23.7383 542.289,0 576.879,0 c 34.598,0 51.562,23.7383 66.547,44.6719 15.23,21.3008 25.609,34.3476 46.476,34.3476 20.856,0 31.227,-13.0507 46.457,-34.3476 C 751.332,23.7305 768.293,0 802.879,0 c 6.832,0 12.355,5.51953 12.355,12.3516 -0.015,6.8398 -5.574,12.3398 -12.402,12.3398" /><path
         id="path16"
         style="fill:#171717;fill-opacity:1;fill-rule:nonzero;stroke:none"
         d="m 802.832,152.867 c -20.824,0 -31.199,13.055 -46.43,34.336 -14.976,20.945 -31.937,44.688 -66.547,44.688 -34.621,0 -51.593,-23.739 -66.574,-44.688 -15.215,-21.297 -25.617,-34.336 -46.453,-34.336 -20.816,0 -31.191,13.055 -46.402,34.336 -14.961,20.945 -31.914,44.688 -66.508,44.688 -34.602,0 -51.559,-23.739 -66.52,-44.688 -15.207,-21.297 -25.589,-34.336 -46.402,-34.336 -20.828,0 -31.195,13.055 -46.43,34.352 -14.957,20.933 -31.91,44.672 -66.503,44.672 -34.579,0 -51.52,-23.739 -66.477,-44.672 -15.207,-21.309 -25.578,-34.352 -46.402,-34.352 -20.801,0 -31.1645,13.055 -46.3832,34.336 C 63.8906,208.152 46.9375,231.906 12.3516,231.906 5.51953,231.906 0,226.387 0,219.551 c 0,-6.828 5.51953,-12.352 12.3516,-12.352 20.8242,0 31.1914,-13.051 46.4023,-34.347 14.957,-20.942 31.9063,-44.676 66.4801,-44.676 34.582,0 51.539,23.754 66.5,44.691 15.207,21.297 25.582,34.332 46.383,34.332 20.813,0 31.184,-13.051 46.403,-34.332 14.953,-20.945 31.925,-44.691 66.519,-44.691 34.582,0 51.535,23.738 66.5,44.676 15.219,21.3 25.59,34.347 46.434,34.347 20.812,0 31.183,-13.051 46.406,-34.332 14.949,-20.945 31.91,-44.691 66.5,-44.691 34.598,0 51.562,23.738 66.547,44.676 15.23,21.3 25.609,34.347 46.476,34.347 20.856,0 31.227,-13.051 46.457,-34.347 14.973,-20.942 31.934,-44.676 66.52,-44.676 6.832,0 12.355,5.523 12.355,12.355 -0.015,6.836 -5.574,12.336 -12.402,12.336" /><path
         id="path18"
         style="fill:#171717;fill-opacity:1;fill-rule:nonzero;stroke:none"
         d="m 407.617,864.402 c -112.39,0 -203.828,-91.441 -203.828,-203.836 0,-112.39 91.438,-203.828 203.828,-203.828 112.395,0 203.828,91.438 203.828,203.828 0,112.395 -91.433,203.836 -203.828,203.836 z m 0,-427.664 c -123.418,0 -223.828,100.41 -223.828,223.828 0,123.426 100.41,223.836 223.828,223.836 123.418,0 223.828,-100.41 223.828,-223.836 0,-123.418 -100.41,-223.828 -223.828,-223.828" /><path
         id="path20"
         style="fill:#171717;fill-opacity:1;fill-rule:nonzero;stroke:none"
         d="m 397.199,919.352 c -5.523,0 -10,4.476 -10,10 v 92.588 c 0,5.52 4.477,10 10,10 5.52,0 10,-4.48 10,-10 v -92.588 c 0,-5.524 -4.48,-10 -10,-10" /><path
         id="path22"
         style="fill:#171717;fill-opacity:1;fill-rule:nonzero;stroke:none"
         d="m 590.305,847.996 c -2.559,0 -5.117,0.977 -7.071,2.93 -3.906,3.906 -3.906,10.234 0,14.14 l 56.141,56.141 c 3.906,3.906 10.234,3.906 14.141,0 3.906,-3.906 3.906,-10.234 0,-14.141 l -56.145,-56.14 c -1.949,-1.953 -4.508,-2.93 -7.066,-2.93" /><path
         id="path24"
         style="fill:#171717;fill-opacity:1;fill-rule:nonzero;stroke:none"
         d="m 770.117,660.992 h -93.719 c -5.527,0 -10,4.477 -10,10 0,5.524 4.473,10 10,10 h 93.719 c 5.528,0 10,-4.476 10,-10 0,-5.523 -4.472,-10 -10,-10" /><path
         id="path26"
         style="fill:#171717;fill-opacity:1;fill-rule:nonzero;stroke:none"
         d="m 663.73,409.191 c -2.558,0 -5.117,0.977 -7.07,2.93 l -58.691,58.692 c -3.906,3.906 -3.906,10.234 0,14.14 3.906,3.906 10.234,3.906 14.14,0 l 58.692,-58.691 c 3.906,-3.907 3.906,-10.235 0,-14.141 -1.953,-1.953 -4.512,-2.93 -7.071,-2.93" /><path
         id="path28"
         style="fill:#171717;fill-opacity:1;fill-rule:nonzero;stroke:none"
         d="m 418.035,301.656 c -5.519,0 -10,4.477 -10,10 v 80.133 c 0,5.524 4.481,10 10,10 5.531,0 10,-4.476 10,-10 v -80.133 c 0,-5.523 -4.469,-10 -10,-10" /><path
         id="path30"
         style="fill:#171717;fill-opacity:1;fill-rule:nonzero;stroke:none"
         d="m 171.25,399.465 c -2.559,0 -5.117,0.976 -7.07,2.93 -3.907,3.906 -3.907,10.234 0,14.14 l 53.675,53.68 c 3.907,3.906 10.235,3.906 14.141,0 3.906,-3.906 3.906,-10.235 0,-14.141 L 178.32,402.395 c -1.953,-1.954 -4.511,-2.93 -7.07,-2.93" /><path
         id="path32"
         style="fill:#171717;fill-opacity:1;fill-rule:nonzero;stroke:none"
         d="M 138.832,640.148 H 68.0039 c -5.5234,0 -10,4.477 -10,10 0,5.524 4.4766,10 10,10 h 70.8281 c 5.523,0 10,-4.476 10,-10 0,-5.523 -4.477,-10 -10,-10" /><path
         id="path34"
         style="fill:#171717;fill-opacity:1;fill-rule:nonzero;stroke:none"
         d="m 210.191,833.258 c -2.558,0 -5.117,0.976 -7.07,2.93 l -51.133,51.132 c -3.906,3.907 -3.906,10.235 0,14.141 3.907,3.906 10.235,3.906 14.141,0 l 51.133,-51.133 c 3.906,-3.906 3.906,-10.234 0,-14.14 -1.953,-1.954 -4.512,-2.93 -7.071,-2.93" /></g></g></svg>