<?xml version="1.0" encoding="iso-8859-1"?>
<!-- Generator: Adobe Illustrator 19.0.0, SVG Export Plug-In . SVG Version: 6.00 Build 0)  -->
<svg version="1.1" id="Layer_1" xmlns="http://www.w3.org/2000/svg" xmlns:xlink="http://www.w3.org/1999/xlink" x="0px" y="0px"
	 viewBox="0 0 512 512" style="enable-background:new 0 0 512 512;" xml:space="preserve">
<g>
	<g>
		<g>
			<path d="M457.426,193.898c-3.249,0-6.462,0.29-9.619,0.852v-61.44c0-21.466-17.464-38.929-38.929-38.929H103.123
				c-21.466,0-38.929,17.464-38.929,38.929v61.441c-3.161-0.563-6.378-0.853-9.631-0.853C24.477,193.898,0,218.375,0,248.461
				c0,25.329,17.58,47.206,41.722,53.038v41.663v29.513c0,3.546,2.875,6.42,6.42,6.42h13.523l6.051,33.252
				c0.556,3.053,3.214,5.271,6.317,5.271h26.046c3.545,0,6.42-2.874,6.42-6.42v-32.102h299.012v32.102c0,3.546,2.875,6.42,6.42,6.42
				h26.046c3.103,0,5.762-2.219,6.317-5.272l6.041-33.25h13.512c3.545,0,6.42-2.874,6.42-6.42v-29.513V301.5
				c24.15-5.83,41.733-27.708,41.733-53.038C512,218.375,487.518,193.898,457.426,193.898z M103.123,107.222h305.753
				c14.385,0,26.089,11.703,26.089,26.088v65.418c-19.375,8.75-32.102,28.188-32.102,49.733v30.378
				c-5.305-3.956-11.881-6.302-18.994-6.302H128.12c-7.109,0-13.68,2.344-18.983,6.298v-30.375c0-21.547-12.73-40.985-32.102-49.733
				V133.31h0C77.035,118.925,88.738,107.222,103.123,107.222z M402.863,304.362v32.381H109.137v-32.381
				c0-10.467,8.516-18.983,18.983-18.983h255.749C394.343,285.379,402.863,293.895,402.863,304.362z M48.99,289.811
				c-20.609-2.743-36.149-20.52-36.149-41.35c0-23.006,18.717-41.722,41.722-41.722c4.783,0,9.463,0.798,13.914,2.373
				c16.64,5.874,27.819,21.687,27.819,39.349v88.281H54.563v-40.567C54.563,292.957,52.181,290.236,48.99,289.811z M93.659,404.778
				H79.391l-4.673-25.682h18.94C93.659,379.096,93.659,404.778,93.659,404.778z M432.618,404.778h-14.266v-25.682h18.931
				L432.618,404.778z M457.426,366.255H54.563v-16.672h402.863V366.255z M463,289.811c-3.19,0.425-5.574,3.146-5.574,6.365v40.567
				h-41.722v-88.281c0-17.663,11.179-33.476,27.824-39.351c4.445-1.573,9.12-2.371,13.897-2.371
				c23.012,0,41.733,18.717,41.733,41.722C499.159,269.291,483.613,287.069,463,289.811z"/>
			<path d="M134.819,198.713h11.236v11.236c0,3.546,2.875,6.42,6.42,6.42s6.42-2.874,6.42-6.42v-11.236h11.236
				c3.545,0,6.42-2.874,6.42-6.42c0-3.546-2.875-6.42-6.42-6.42h-11.236v-11.236c0-3.546-2.875-6.42-6.42-6.42
				s-6.42,2.874-6.42,6.42v11.236h-11.236c-3.545,0-6.42,2.874-6.42,6.42C128.399,195.839,131.274,198.713,134.819,198.713z"/>
			<path d="M341.868,198.713h11.236v11.236c0,3.546,2.875,6.42,6.42,6.42s6.42-2.874,6.42-6.42v-11.236h11.236
				c3.545,0,6.42-2.874,6.42-6.42c0-3.546-2.875-6.42-6.42-6.42h-11.236v-11.236c0-3.546-2.875-6.42-6.42-6.42
				s-6.42,2.874-6.42,6.42v11.236h-11.236c-3.545,0-6.42,2.874-6.42,6.42C335.448,195.839,338.323,198.713,341.868,198.713z"/>
			<path d="M238.349,198.713h11.236v11.236c0,3.546,2.875,6.42,6.42,6.42s6.42-2.874,6.42-6.42v-11.236h11.225
				c3.545,0,6.42-2.874,6.42-6.42c0-3.546-2.875-6.42-6.42-6.42h-11.225v-11.236c0-3.546-2.875-6.42-6.42-6.42
				s-6.42,2.874-6.42,6.42v11.236h-11.236c-3.545,0-6.42,2.874-6.42,6.42C231.929,195.839,234.804,198.713,238.349,198.713z"/>
			<path d="M78.105,248.633c0-12.981-10.561-23.542-23.542-23.542c-12.981,0-23.542,10.561-23.542,23.542
				c0,12.981,10.561,23.542,23.542,23.542C67.544,272.174,78.105,261.614,78.105,248.633z M43.862,248.633
				c0-5.9,4.8-10.701,10.701-10.701c5.9,0,10.701,4.8,10.701,10.701c0,5.9-4.8,10.701-10.701,10.701
				C48.663,259.333,43.862,254.533,43.862,248.633z"/>
			<path d="M457.426,225.091c-12.981,0-23.542,10.561-23.542,23.542c0,12.981,10.561,23.542,23.542,23.542
				c12.981,0,23.542-10.561,23.542-23.542C480.968,235.651,470.407,225.091,457.426,225.091z M457.426,259.333
				c-5.9,0-10.701-4.8-10.701-10.701c0-5.9,4.8-10.701,10.701-10.701c5.9,0,10.701,4.8,10.701,10.701
				C468.127,254.533,463.325,259.333,457.426,259.333z"/>
		</g>
	</g>
</g>
<g>
</g>
<g>
</g>
<g>
</g>
<g>
</g>
<g>
</g>
<g>
</g>
<g>
</g>
<g>
</g>
<g>
</g>
<g>
</g>
<g>
</g>
<g>
</g>
<g>
</g>
<g>
</g>
<g>
</g>
</svg>
