<?xml version="1.0" encoding="UTF-8" standalone="no"?>
<!-- Created with Inkscape (http://www.inkscape.org/) -->

<svg
   version="1.1"
   id="svg2"
   xml:space="preserve"
   width="179.44"
   height="185.16"
   viewBox="0 0 179.44 185.16"
   sodipodi:docname="isolation-phonique.eps"
   xmlns:inkscape="http://www.inkscape.org/namespaces/inkscape"
   xmlns:sodipodi="http://sodipodi.sourceforge.net/DTD/sodipodi-0.dtd"
   xmlns="http://www.w3.org/2000/svg"
   xmlns:svg="http://www.w3.org/2000/svg"><defs
     id="defs6" /><sodipodi:namedview
     id="namedview4"
     pagecolor="#ffffff"
     bordercolor="#666666"
     borderopacity="1.0"
     inkscape:pageshadow="2"
     inkscape:pageopacity="0.0"
     inkscape:pagecheckerboard="0" /><g
     id="g8"
     inkscape:groupmode="layer"
     inkscape:label="ink_ext_XXXXXX"
     transform="matrix(1.3333333,0,0,-1.3333333,0,185.16)"><g
       id="g10"
       transform="scale(0.1)"><path
         d="m 289.41,1231.07 c 4.328,-3.44 10.184,-4.27 15.289,-2.15 l 50.563,20.93 c 0,0 139.492,-347.862 139.847,-348.584 2.504,-5.078 7.731,-8.571 13.774,-8.571 8.476,0 15.351,6.875 15.351,15.352 0,1.558 -0.23,3.058 -0.664,4.476 -0.386,1.266 -145.804,362.957 -145.804,362.957 -0.02,0.04 -0.032,0.08 -0.051,0.13 -0.004,0.01 -0.016,0.03 -0.024,0.05 l -0.05,0.13 c -3.129,7.79 -11.985,11.58 -19.786,8.45 -1.093,-0.44 -2.109,-1 -3.039,-1.65 l -36.398,-15.06 13.551,80.97 88.84,-55.71 c 7.117,-4.47 16.507,-2.32 20.972,4.8 0.555,0.89 1.008,1.81 1.364,2.75 2.484,6.64 0.058,14.32 -6.172,18.23 l -108.16,67.82 c -4.309,2.71 -9.684,3.08 -14.321,0.99 -4.64,-2.08 -7.929,-6.35 -8.769,-11.36 l -21.844,-130.53 c -0.914,-5.46 1.203,-10.98 5.531,-14.42"
         style="fill:#232424;fill-opacity:1;fill-rule:nonzero;stroke:none"
         id="path12" /><path
         d="m 511.184,496.02 c -6.043,0 -11.27,-3.493 -13.774,-8.571 C 497.051,486.727 357.563,138.871 357.563,138.871 L 307,159.801 c -5.109,2.109 -10.965,1.289 -15.293,-2.16 -4.324,-3.442 -6.445,-8.961 -5.531,-14.411 L 308.02,12.6992 c 0.839,-5.01951 4.128,-9.27732 8.769,-11.37107 4.641,-2.07813 10.012,-1.707036 14.32,0.99218 L 439.273,70.1484 c 6.231,3.9102 8.657,11.5899 6.168,18.2227 -0.351,0.9375 -0.804,1.8672 -1.363,2.75 -4.465,7.1172 -13.855,9.2699 -20.973,4.8086 l -88.839,-55.7109 -13.551,80.9722 36.398,-15.07 c 0.93,-0.652 1.946,-1.199 3.043,-1.641 7.797,-3.128 16.657,0.649 19.785,8.45 l 0.051,0.129 c 0.004,0.019 0.016,0.031 0.024,0.05 0.015,0.039 0.031,0.082 0.047,0.129 0,0 145.421,361.688 145.804,362.957 0.434,1.414 0.664,2.914 0.664,4.473 0,8.477 -6.871,15.352 -15.347,15.352"
         style="fill:#232424;fill-opacity:1;fill-rule:nonzero;stroke:none"
         id="path14" /><path
         d="m 1271.86,1038.57 c -0.03,0.03 -0.06,0.05 -0.08,0.08 -0.02,0.03 -0.04,0.06 -0.07,0.09 -45.86,53.79 -112.67,84.63 -183.29,84.63 -132.768,0 -240.783,-108.01 -240.783,-240.784 0,-42.316 11.136,-83.941 32.207,-120.375 2.894,-5.012 8.148,-7.813 13.547,-7.813 2.656,0 5.347,0.68 7.812,2.106 7.477,4.32 10.031,13.887 5.707,21.359 -18.316,31.684 -28,67.895 -28,104.723 0,115.527 93.988,209.514 209.51,209.514 61.42,0 119.51,-26.81 159.42,-73.56 45.04,-54.474 66.86,-122.349 66.68,-207.47 -14.05,-167.664 -65.89,-225.371 -144.31,-312.672 -38.66,-43.031 -82.46,-91.793 -129.62,-163 -19.02,-24.648 -47.711,-38.777 -78.809,-38.777 -54.84,0 -99.457,44.609 -99.457,99.453 0,8.633 -7,15.637 -15.636,15.637 -8.637,0 -15.637,-7.004 -15.637,-15.637 0,-72.086 58.648,-130.722 130.73,-130.722 41.029,0 78.889,18.699 103.859,51.32 0.15,0.18 0.27,0.387 0.4,0.578 0.07,0.102 0.16,0.191 0.23,0.301 46.04,69.609 89.16,117.605 127.2,159.953 79.78,88.809 137.42,152.973 152.27,331.598 0.03,0.414 0.05,0.828 0.05,1.242 0.31,93.082 -23.87,167.734 -73.93,228.226"
         style="fill:#232424;fill-opacity:1;fill-rule:nonzero;stroke:none"
         id="path16" /><path
         d="m 896.785,612.824 c -8.105,2.985 -17.09,-1.176 -20.07,-9.277 -2.242,-6.09 -21.328,-60.5 -2.188,-95.309 7.442,-13.527 19.778,-22.5 35.676,-25.937 3.82,-0.824 7.481,-1.211 11,-1.211 27.992,0.004 47.223,24.484 65.883,48.246 23.144,29.473 47.054,59.926 89.894,59.926 0.75,0 1.51,-0.008 2.26,-0.028 0.07,0 0.13,0.008 0.2,0.004 0.06,0 0.13,-0.008 0.19,-0.008 71.69,0 130.01,58.325 130.01,130.008 0,71.692 -58.32,130.012 -130.01,130.012 -36.11,0 -70.15,-14.941 -94.521,-40.754 -12.664,20.008 -19.515,43.32 -19.515,67.266 0,69.351 56.426,125.778 125.776,125.778 48.48,0 93.16,-28.352 113.84,-72.227 3.68,-7.809 13,-11.161 20.81,-7.477 7.81,3.684 11.16,13 7.48,20.809 -25.82,54.769 -81.61,90.165 -142.13,90.165 -86.6,0 -157.046,-70.455 -157.046,-157.048 0,-37.574 13.477,-73.938 37.953,-102.379 1.258,-1.465 2.739,-2.621 4.336,-3.5 7.098,-4.363 16.43,-2.414 21.133,4.551 18.424,27.265 49.034,43.546 81.884,43.546 54.44,0 98.74,-44.296 98.74,-98.742 0,-54.441 -44.3,-98.734 -98.74,-98.734 -0.02,0 -0.04,-0.008 -0.07,-0.008 -59.68,1.258 -91.482,-39.258 -117.068,-71.848 -19.004,-24.203 -31.387,-38.875 -45.679,-35.781 -7.071,1.528 -11.793,4.84 -14.868,10.414 -10.433,18.914 -0.261,57.473 4.118,69.473 2.98,8.101 -1.172,17.09 -9.278,20.07"
         style="fill:#232424;fill-opacity:1;fill-rule:nonzero;stroke:none"
         id="path18" /><path
         d="M 32.0273,797.883 C 27.5547,806.16 17.2188,809.246 8.94141,804.773 0.664063,800.297 -2.42188,789.965 2.05078,781.688 8.05859,770.566 12.9219,758.797 16.5,746.707 c 5.0117,-16.914 7.5508,-34.527 7.5508,-52.348 0,-30.492 -7.6055,-60.691 -22.00002,-87.332 -4.46875,-8.277 -1.386717,-18.613 6.89063,-23.086 2.57809,-1.386 5.35159,-2.05 8.08589,-2.05 6.0547,0 11.9219,3.242 15.004,8.945 17.0664,31.598 26.0898,67.394 26.0898,103.523 0,21.098 -3.0117,41.965 -8.9492,62.02 -4.25,14.348 -10.0156,28.312 -17.1446,41.504"
         style="fill:#232424;fill-opacity:1;fill-rule:nonzero;stroke:none"
         id="path20" /><path
         d="m 269.219,1011.21 c -6.078,7.18 -16.828,8.07 -24.012,1.99 -7.18,-6.08 -8.07,-16.833 -1.988,-24.012 69.629,-82.215 107.976,-186.922 107.976,-294.833 0,-107.91 -38.347,-212.609 -107.976,-294.828 -6.082,-7.179 -5.192,-17.925 1.988,-24.007 3.199,-2.719 7.113,-4.04 11.004,-4.04 4.836,0 9.637,2.051 13.008,6.032 74.836,88.355 116.047,200.883 116.047,316.843 0,115.961 -41.211,228.489 -116.047,316.855"
         style="fill:#232424;fill-opacity:1;fill-rule:nonzero;stroke:none"
         id="path22" /><path
         d="m 132.648,899.336 c -6.316,6.977 -17.089,7.516 -24.062,1.203 -6.981,-6.312 -7.516,-17.086 -1.203,-24.062 16.957,-18.743 31.246,-39.672 42.476,-62.211 19.118,-38.368 28.813,-79.723 28.813,-122.918 0,-65.813 -23.547,-129.547 -66.297,-179.457 -6.121,-7.149 -5.289,-17.903 1.855,-24.02 3.215,-2.754 7.157,-4.098 11.075,-4.098 4.804,0 9.578,2.02 12.949,5.954 48.035,56.082 74.488,127.687 74.488,201.621 0,48.515 -10.894,94.984 -32.387,138.113 -12.617,25.32 -28.667,48.828 -47.707,69.875"
         style="fill:#232424;fill-opacity:1;fill-rule:nonzero;stroke:none"
         id="path24" /><path
         d="M 639.359,217.09 V 332.281 L 731.555,274.66 V 159.469 Z m 92.196,954.54 v -115.2 l -92.196,57.63 v 115.19 z M 639.359,478.766 731.555,421.145 V 310.469 l -92.196,57.621 z m 92.196,431.183 -92.196,57.621 v 110.68 l 92.196,-57.62 z m -92.196,-93.375 v 115.192 l 92.196,-57.625 V 758.949 Z m 0,-151 v 115.192 l 92.196,-57.625 V 607.949 Z m 0,-35.808 92.196,-57.621 V 456.949 l -92.196,57.625 z M 761.922,1179.9 v 124.2 c 0,8.39 -6.801,15.19 -15.184,15.19 -8.386,0 -15.183,-6.8 -15.183,-15.19 v -96.67 l -92.196,57.62 v 39.05 c 0,8.39 -6.796,15.19 -15.183,15.19 -8.383,0 -15.184,-6.8 -15.184,-15.19 v -47.23 c 0,-0.03 0,-0.06 0,-0.09 v -150.91 c 0,-0.03 0,-0.06 0,-0.09 V 959.383 c 0,-0.028 0,-0.059 0,-0.086 v -150.91 c 0,-0.032 0,-0.063 0,-0.09 v -150.91 c 0,-0.032 0,-0.063 0,-0.09 v -150.91 c 0,-0.032 0,-0.059 0,-0.09 V 359.898 c 0,-0.027 0,-0.058 0,-0.089 V 208.898 c 0,-0.027 0,-0.058 0,-0.089 V 84.6094 c 0,-8.3789 6.801,-15.1797 15.184,-15.1797 8.387,0 15.183,6.8008 15.183,15.1797 V 181.281 L 731.555,123.66 V 84.6094 c 0,-8.3789 6.797,-15.1797 15.183,-15.1797 8.383,0 15.184,6.8008 15.184,15.1797 v 47.2426 c 0,0.027 -0.004,0.058 0,0.089 v 150.911 c 0,0.027 -0.004,0.058 0,0.089 v 146.391 c 0,0.027 -0.004,0.059 0,0.09 v 150.906 c 0,0.031 -0.004,0.063 0,0.09 v 150.91 c 0,0.031 -0.004,0.063 0,0.09 v 150.91 c 0,0.031 -0.004,0.059 0,0.09 v 146.392 c 0,0.03 -0.004,0.07 0,0.09 v 150.91 c 0,0.03 -0.004,0.06 0,0.09"
         style="fill:#232424;fill-opacity:1;fill-rule:nonzero;stroke:none"
         id="path26" /></g></g></svg>
