<?xml version="1.0" encoding="UTF-8" standalone="no"?>
<svg
   xmlns:dc="http://purl.org/dc/elements/1.1/"
   xmlns:cc="http://creativecommons.org/ns#"
   xmlns:rdf="http://www.w3.org/1999/02/22-rdf-syntax-ns#"
   xmlns:svg="http://www.w3.org/2000/svg"
   xmlns="http://www.w3.org/2000/svg"
   viewBox="0 0 179.29333 127.93333"
   height="127.93333"
   width="179.29333"
   xml:space="preserve"
   id="svg2"
   version="1.1"><metadata
     id="metadata8"><rdf:RDF><cc:Work
         rdf:about=""><dc:format>image/svg+xml</dc:format><dc:type
           rdf:resource="http://purl.org/dc/dcmitype/StillImage" /></cc:Work></rdf:RDF></metadata><defs
     id="defs6" /><g
     transform="matrix(1.3333333,0,0,-1.3333333,0,127.93333)"
     id="g10"><g
       transform="scale(0.1)"
       id="g12"><path
         id="path14"
         style="fill:#171717;fill-opacity:1;fill-rule:nonzero;stroke:none"
         d="m 1303.57,733.039 h -206.05 c -11.37,0 -20.59,-9.215 -20.59,-20.586 V 247.09 c 0,-11.367 9.22,-20.586 20.59,-20.586 h 206.05 V 41.1719 H 692.957 V 301.563 c 89.293,10.257 158.895,86.21 158.895,178.21 0,91.993 -69.602,167.95 -158.895,178.207 v 260.395 h 610.613 z m 0,-465.363 H 1118.1 v 424.195 h 185.47 z M 651.785,657.98 C 562.488,647.723 492.887,571.766 492.887,479.773 c 0,-92 69.601,-167.957 158.898,-178.21 V 41.1719 H 41.1719 V 226.504 H 247.223 c 11.367,0 20.586,9.219 20.586,20.586 v 465.363 c 0,11.371 -9.219,20.586 -20.586,20.586 H 41.1719 V 918.375 H 651.785 Z m 0,-314.82 c -66.512,9.996 -117.73,67.356 -117.73,136.613 0,69.25 51.218,126.614 117.73,136.606 z M 41.1719,691.871 H 226.637 V 267.676 H 41.1719 Z M 692.957,616.379 c 66.512,-9.992 117.727,-67.356 117.727,-136.606 0,-69.257 -51.215,-126.617 -117.727,-136.613 z M 1324.15,959.547 H 20.5859 C 9.21875,959.547 0,950.328 0,938.961 V 712.453 247.09 20.5859 C 0,9.21875 9.21875,0 20.5859,0 H 1324.15 c 11.37,0 20.59,9.21875 20.59,20.5859 V 247.09 712.453 938.961 c 0,11.367 -9.22,20.586 -20.59,20.586" /></g></g></svg>