<?xml version="1.0" encoding="UTF-8" standalone="no"?>
<svg
   xmlns:dc="http://purl.org/dc/elements/1.1/"
   xmlns:cc="http://creativecommons.org/ns#"
   xmlns:rdf="http://www.w3.org/1999/02/22-rdf-syntax-ns#"
   xmlns:svg="http://www.w3.org/2000/svg"
   xmlns="http://www.w3.org/2000/svg"
   viewBox="0 0 97.919998 125.09333"
   height="125.09333"
   width="97.919998"
   xml:space="preserve"
   id="svg2"
   version="1.1"><metadata
     id="metadata8"><rdf:RDF><cc:Work
         rdf:about=""><dc:format>image/svg+xml</dc:format><dc:type
           rdf:resource="http://purl.org/dc/dcmitype/StillImage" /></cc:Work></rdf:RDF></metadata><defs
     id="defs6" /><g
     transform="matrix(1.3333333,0,0,-1.3333333,0,125.09333)"
     id="g10"><g
       transform="scale(0.1)"
       id="g12"><path
         id="path14"
         style="fill:#040606;fill-opacity:1;fill-rule:nonzero;stroke:none"
         d="M 734.387,13.1094 V 704.609 c 0,7.243 -5.867,13.114 -13.11,13.114 H 579.645 c -7.243,0 -13.114,-5.871 -13.114,-13.114 v -95.964 c 0,-7.457 -5.172,-13.715 -12.109,-15.418 H 454.203 c -1.195,0 -2.348,-0.172 -3.445,-0.473 h -12.746 c -7.242,0 -13.114,-5.871 -13.114,-13.109 V 467.012 c 0,-7.867 -5.75,-14.399 -13.261,-15.653 h -26.266 c -0.832,0 -1.648,-0.086 -2.437,-0.238 h -86.555 c -7.242,0 -13.113,-5.867 -13.113,-13.109 V 325.375 c 0,-8.758 -7.125,-15.887 -15.887,-15.887 H 154.742 c -7.238,0 -13.109,-5.871 -13.109,-13.109 V 183.746 c 0,-8.762 -7.125,-15.891 -15.887,-15.891 H 13.1094 C 5.87109,167.855 0,161.984 0,154.746 V 13.1094 C 0,5.87109 5.87109,0 13.1094,0 H 721.277 c 7.243,0 13.11,5.87109 13.11,13.1094 z M 708.164,26.2227 H 26.2227 V 141.633 h 97.1213 c 0.793,-0.149 1.605,-0.235 2.441,-0.235 h 188.328 c 7.242,0 13.114,5.872 13.114,13.11 0,7.242 -5.872,13.113 -13.114,13.113 H 164.641 c 2.066,4.969 3.214,10.414 3.214,16.125 v 99.52 h 99.524 188.328 c 7.242,0 13.113,5.871 13.113,13.113 0,7.238 -5.871,13.109 -13.113,13.109 h -149.34 c 2.004,4.907 3.121,10.27 3.121,15.887 v 99.527 h 99.524 c 1.5,0 2.98,0.078 4.437,0.235 h 160.254 c 7.238,0 13.11,5.871 13.11,13.109 0,7.242 -5.872,13.113 -13.11,13.113 H 448.094 c 1.945,4.84 3.027,10.121 3.027,15.653 v 99.519 h 99.524 c 2.14,0 4.242,0.164 6.296,0.473 h 85.59 c 7.242,0 13.114,5.871 13.114,13.113 0,7.238 -5.872,13.11 -13.114,13.11 H 589.82 c 1.887,4.777 2.934,9.976 2.934,15.418 V 691.5 h 115.41 v -665.2773 0" /><path
         id="path16"
         style="fill:#040606;fill-opacity:1;fill-rule:nonzero;stroke:none"
         d="M 721.277,938.148 H 567.801 c -3.707,0 -7.246,-1.57 -9.731,-4.324 L 65.4922,388.426 H 13.1094 C 5.87109,388.426 0,382.559 0,375.316 0,368.074 5.87109,362.203 13.1094,362.203 h 58.207 c 3.7109,0 7.2461,1.574 9.7305,4.324 L 573.629,911.93 h 147.648 c 7.243,0 13.11,5.867 13.11,13.109 0,7.238 -5.867,13.109 -13.11,13.109 v 0" /></g></g></svg>