<svg id="Calque_1" data-name="Calque 1" xmlns="http://www.w3.org/2000/svg" viewBox="0 0 200 200"><defs><style>.cls-1{fill:gray;}</style></defs><path class="cls-1" d="M174.56,55.94A3.39,3.39,0,0,0,178,52.55V25.44a3.38,3.38,0,0,0-3.39-3.39H147.45a3.38,3.38,0,0,0-3.39,3.39V35.6H55.94V25.44a3.39,3.39,0,0,0-3.39-3.39H25.43A3.39,3.39,0,0,0,22,25.44V52.55a3.39,3.39,0,0,0,3.39,3.39H35.6v88.12H25.43A3.39,3.39,0,0,0,22,147.45v27.11A3.39,3.39,0,0,0,25.43,178H52.55a3.39,3.39,0,0,0,3.39-3.39V164.4h88.12v10.16a3.38,3.38,0,0,0,3.39,3.39h27.11a3.38,3.38,0,0,0,3.39-3.39V147.45a3.39,3.39,0,0,0-3.39-3.39H164.39V55.94ZM150.84,28.83h20.33V49.16H150.84V28.83Zm-122,20.33V28.83H49.16V49.16H28.82Zm20.34,122H28.82V150.84H49.16v20.33Zm122-20.33v20.33H150.84V150.84h20.33Zm-13.55-6.78H147.45a3.39,3.39,0,0,0-3.39,3.39v10.17H55.94V147.45a3.39,3.39,0,0,0-3.39-3.39H42.38V55.94H52.55a3.39,3.39,0,0,0,3.39-3.39V42.38h88.12V52.55a3.39,3.39,0,0,0,3.39,3.39h10.17v88.12Z"/></svg>