<?xml version="1.0" encoding="UTF-8" standalone="no"?>
<!-- Created with Inkscape (http://www.inkscape.org/) -->

<svg
   version="1.1"
   id="svg2"
   xml:space="preserve"
   width="143.01334"
   height="141.70132"
   viewBox="0 0 143.01334 141.70133"
   sodipodi:docname="1332c639d0cccddf5d15372483209dda.eps"
   xmlns:inkscape="http://www.inkscape.org/namespaces/inkscape"
   xmlns:sodipodi="http://sodipodi.sourceforge.net/DTD/sodipodi-0.dtd"
   xmlns="http://www.w3.org/2000/svg"
   xmlns:svg="http://www.w3.org/2000/svg"><defs
     id="defs6" /><sodipodi:namedview
     id="namedview4"
     pagecolor="#ffffff"
     bordercolor="#666666"
     borderopacity="1.0"
     inkscape:pageshadow="2"
     inkscape:pageopacity="0.0"
     inkscape:pagecheckerboard="0" /><g
     id="g8"
     inkscape:groupmode="layer"
     inkscape:label="ink_ext_XXXXXX"
     transform="matrix(1.3333333,0,0,-1.3333333,0,141.70133)"><g
       id="g10"
       transform="scale(0.1)"><path
         d="M 85.0273,211.684 H 987.426 V 280.34 H 85.0273 v -68.656"
         style="fill:#040606;fill-opacity:1;fill-rule:nonzero;stroke:none"
         id="path12" /><path
         d="M 539.566,1062.76 0,770.055 l 32.7422,-60.34 506.6098,274.832 500.208,-274.75 33.04,60.18 -533.034,292.783"
         style="fill:#040606;fill-opacity:1;fill-rule:nonzero;stroke:none"
         id="path14" /><path
         d="m 914.75,176.785 c -37.977,0 -68.867,-34.769 -68.867,-77.5037 V 77.5078 c 0,-19.6875 -12.672,-36.3164 -27.68,-36.3164 -15.004,0 -27.687,16.6289 -27.687,36.3164 v 21.7735 c 0,42.7347 -30.895,77.5037 -68.871,77.5037 -37.973,0 -68.868,-34.769 -68.868,-77.5037 V 77.5078 c 0,-19.6875 -12.687,-36.3164 -27.687,-36.3164 -15.008,0 -27.68,16.6289 -27.68,36.3164 v 21.7735 c 0,42.7347 -30.894,77.5037 -68.867,77.5037 -37.988,0 -68.883,-34.769 -68.883,-77.5037 V 77.5078 c 0,-19.6875 -12.672,-36.3164 -27.676,-36.3164 -15.004,0 -27.675,16.6289 -27.675,36.3164 v 21.7735 c 0,42.7347 -30.895,77.5037 -68.883,77.5037 -37.977,0 -68.867,-34.769 -68.867,-77.5037 V 77.5078 c 0,-19.6875 -12.672,-36.3164 -27.676,-36.3164 -15.008,0 -27.692,16.6289 -27.692,36.3164 v 21.7735 c 0,42.7347 -30.894,77.5037 -68.867,77.5037 -37.976,0 -68.8709,-34.769 -68.8709,-77.5037 V 77.5078 h 41.1949 v 21.7735 c 0,19.6877 12.668,36.3127 27.676,36.3127 15.004,0 27.676,-16.625 27.676,-36.3127 V 77.5078 C 170,34.7695 200.895,0 238.883,0 276.855,0 307.75,34.7695 307.75,77.5078 v 21.7735 c 0,19.6877 12.672,36.3127 27.676,36.3127 15.004,0 27.691,-16.625 27.691,-36.3127 V 77.5078 C 363.117,34.7695 394.012,0 431.984,0 c 37.973,0 68.868,34.7695 68.868,77.5078 v 21.7735 c 0,19.6877 12.683,36.3127 27.691,36.3127 15.004,0 27.676,-16.625 27.676,-36.3127 V 77.5078 C 556.219,34.7695 587.113,0 625.09,0 c 37.984,0 68.879,34.7695 68.879,77.5078 v 21.7735 c 0,19.6877 12.672,36.3127 27.676,36.3127 15.007,0 27.675,-16.625 27.675,-36.3127 V 77.5078 C 749.32,34.7695 780.215,0 818.203,0 c 37.977,0 68.871,34.7695 68.871,77.5078 v 21.7735 c 0,19.6877 12.668,36.3127 27.676,36.3127 15.004,0 27.688,-16.625 27.688,-36.3127 V 77.5078 h 41.195 v 21.7735 c 0,42.7347 -30.895,77.5037 -68.883,77.5037"
         style="fill:#040606;fill-opacity:1;fill-rule:nonzero;stroke:none"
         id="path16" /><path
         d="m 596.27,526.438 -46.317,226.472 -73.144,-219.285 27.949,-1.68 c -1.723,-6.496 -2.86,-13.929 -2.86,-22.863 0,-26.602 9.575,-40.758 17.274,-52.129 6.141,-9.062 10.187,-15.058 10.187,-29.035 0,-13.992 -4.062,-19.992 -10.187,-29.07 -7.699,-11.379 -17.274,-25.532 -17.274,-52.145 h 41.192 c 0,13.996 4.051,19.988 10.191,29.067 7.699,11.378 17.274,25.531 17.274,52.148 0,26.602 -9.575,40.758 -17.274,52.129 -6.14,9.062 -10.191,15.055 -10.191,29.035 0,9.16 1.859,14.852 4.777,20.27 l 48.403,-2.914"
         style="fill:#040606;fill-opacity:1;fill-rule:nonzero;stroke:none"
         id="path18" /><path
         d="m 347.203,526.438 -46.32,226.472 -73.137,-219.285 27.942,-1.68 c -1.719,-6.492 -2.864,-13.929 -2.864,-22.863 0,-26.602 9.574,-40.758 17.274,-52.129 6.14,-9.062 10.187,-15.058 10.187,-29.035 0,-13.992 -4.062,-19.992 -10.187,-29.07 -7.7,-11.379 -17.274,-25.532 -17.274,-52.145 h 41.196 c 0,13.996 4.05,19.988 10.191,29.067 7.695,11.378 17.269,25.531 17.269,52.148 0,26.602 -9.574,40.758 -17.269,52.129 -6.141,9.062 -10.191,15.055 -10.191,29.035 0,9.16 1.863,14.856 4.781,20.27 l 48.402,-2.914"
         style="fill:#040606;fill-opacity:1;fill-rule:nonzero;stroke:none"
         id="path20" /><path
         d="m 851.824,526.438 -46.32,226.472 -73.141,-219.285 27.946,-1.68 c -1.723,-6.496 -2.864,-13.929 -2.864,-22.863 0,-26.602 9.578,-40.758 17.274,-52.129 6.14,-9.062 10.191,-15.058 10.191,-29.035 0,-13.992 -4.062,-19.992 -10.191,-29.07 -7.696,-11.379 -17.274,-25.532 -17.274,-52.145 h 41.196 c 0,13.996 4.047,19.988 10.191,29.067 7.695,11.378 17.27,25.531 17.27,52.148 0,26.602 -9.575,40.758 -17.27,52.129 -6.144,9.062 -10.191,15.055 -10.191,29.035 0,9.16 1.863,14.856 4.785,20.27 l 48.398,-2.914"
         style="fill:#040606;fill-opacity:1;fill-rule:nonzero;stroke:none"
         id="path22" /></g></g></svg>
